{
  "accessors": [
    {
      "bufferView": 2,
      "componentType": 5126,
      "count": 1790,
      "max": [
        409.36016845703125,
        2059.29150390625,
        405.16876220703125
      ],
      "min": [
        -343.91220092773438,
        -76.212844848632812,
        -375.54067993164062
      ],
      "type": "VEC3"
    },
    {
      "bufferView": 2,
      "byteOffset": 21480,
      "componentType": 5126,
      "count": 1790,
      "max": [
        0.99843418598175049,
        0.99997234344482422,
        0.99945926666259766
      ],
      "min": [
        -0.99895048141479492,
        -0.99999892711639404,
        -0.99859297275543213
      ],
      "type": "VEC3"
    },
    {
      "bufferView": 3,
      "componentType": 5126,
      "count": 1790,
      "max": [
        0.99950474500656128,
        0.99976986646652222,
        0.99999970197677612,
        1
      ],
      "min": [
        -0.99697810411453247,
        -0.99852293729782104,
        -0.99801921844482422,
        -1
      ],
      "type": "VEC4"
    },
    {
      "bufferView": 1,
      "componentType": 5126,
      "count": 1790,
      "max": [
        1,
        0.99354791641235352
      ],
      "min": [
        0.00038074702024459839,
        -0.000946044921875
      ],
      "type": "VEC2"
    },
    {
      "bufferView": 0,
      "componentType": 5125,
      "count": 9258,
      "max": [
        1789
      ],
      "min": [
        0
      ],
      "type": "SCALAR"
    }
  ],
  "asset": {
    "extras": {
      "author": "Owlish Media (https://sketchfab.com/nataliekirk)",
      "license": "CC-BY-SA-4.0 (http://creativecommons.org/licenses/by-sa/4.0/)",
      "source": "https://sketchfab.com/models/849dc96336b94ef099ec704a290db02a",
      "title": "Spear Bearer - Low Poly"
    },
    "generator": "Sketchfab-3.19.4",
    "version": "2.0"
  },
  "bufferViews": [
    {
      "buffer": 0,
      "byteLength": 37032,
      "byteOffset": 0,
      "name": "floatBufferViews",
      "target": 34963
    },
    {
      "buffer": 0,
      "byteLength": 14320,
      "byteOffset": 37032,
      "byteStride": 8,
      "name": "floatBufferViews",
      "target": 34962
    },
    {
      "buffer": 0,
      "byteLength": 42960,
      "byteOffset": 51352,
      "byteStride": 12,
      "name": "floatBufferViews",
      "target": 34962
    },
    {
      "buffer": 0,
      "byteLength": 28640,
      "byteOffset": 94312,
      "byteStride": 16,
      "name": "floatBufferViews",
      "target": 34962
    }
  ],
  "buffers": [
    {
      "byteLength": 122952,
      "uri": "scene.bin"
    }
  ],
  "images": [
    {
      "uri": "textures/Spear-bearer_baseColor.png"
    },
    {
      "uri": "textures/Spear-bearer_normal.png"
    },
    {
      "uri": "textures/Spear-bearer_metallicRoughness.png"
    }
  ],
  "materials": [
    {
      "doubleSided": true,
      "name": "Spear-bearer",
      "normalTexture": {
        "index": 1,
        "scale": 1,
        "texCoord": 0
      },
      "pbrMetallicRoughness": {
        "baseColorFactor": [
          1,
          1,
          1,
          1
        ],
        "baseColorTexture": {
          "index": 0,
          "texCoord": 0
        },
        "metallicFactor": 0.038300304899999998,
        "metallicRoughnessTexture": {
          "index": 2,
          "texCoord": 0
        },
        "roughnessFactor": 1
      }
    }
  ],
  "meshes": [
    {
      "name": "Spear_bearer_Spear-bearer_0",
      "primitives": [
        {
          "attributes": {
            "NORMAL": 1,
            "POSITION": 0,
            "TANGENT": 2,
            "TEXCOORD_0": 3
          },
          "indices": 4,
          "material": 0,
          "mode": 4
        }
      ]
    }
  ],
  "nodes": [
    {
      "children": [
        1
      ],
      "name": "RootNode (gltf orientation matrix)",
      "rotation": [
        -0.70710678118654746,
        -0,
        -0,
        0.70710678118654757
      ]
    },
    {
      "children": [
        2
      ],
      "name": "RootNode (model correction matrix)"
    },
    {
      "children": [
        3
      ],
      "matrix": [
        1,
        0,
        0,
        0,
        0,
        0,
        1,
        0,
        0,
        -1,
        0,
        0,
        0,
        0,
        0,
        1
      ],
      "name": "spear-bearer.fbx"
    },
    {
      "children": [
        4
      ],
      "name": "RootNode"
    },
    {
      "children": [
        5
      ],
      "matrix": [
        1,
        0,
        0,
        0,
        0,
        1,
        0,
        0,
        0,
        0,
        1,
        0,
        -13.862689018249512,
        73.6341552734375,
        37.626071929931641,
        1
      ],
      "name": "Spear_bearer"
    },
    {
      "mesh": 0,
      "name": "Spear_bearer_Spear-bearer_0"
    }
  ],
  "samplers": [
    {
      "magFilter": 9729,
      "minFilter": 9987,
      "wrapS": 10497,
      "wrapT": 10497
    }
  ],
  "scene": 0,
  "scenes": [
    {
      "name": "OSG_Scene",
      "nodes": [
        0
      ]
    }
  ],
  "textures": [
    {
      "sampler": 0,
      "source": 0
    },
    {
      "sampler": 0,
      "source": 1
    },
    {
      "sampler": 0,
      "source": 2
    }
  ]
}

