{
  "accessors": [
    {
      "bufferView": 2,
      "componentType": 5126,
      "count": 6061,
      "max": [
        4.4278302192687988,
        -13.328733444213867,
        -0.91016501188278198
      ],
      "min": [
        2.4592421054840088,
        -17.621084213256836,
        -2.7240040302276611
      ],
      "type": "VEC3"
    },
    {
      "bufferView": 2,
      "byteOffset": 72732,
      "componentType": 5126,
      "count": 6061,
      "max": [
        0.99969124794006348,
        0.99793612957000732,
        0.99992138147354126
      ],
      "min": [
        -0.99980789422988892,
        -0.99970346689224243,
        -0.9997788667678833
      ],
      "type": "VEC3"
    },
    {
      "bufferView": 3,
      "componentType": 5126,
      "count": 6061,
      "max": [
        0.99699878692626953,
        0.99996799230575562,
        0.99949347972869873,
        1
      ],
      "min": [
        -0.99169468879699707,
        -0.99895977973937988,
        -0.99961984157562256,
        -1
      ],
      "type": "VEC4"
    },
    {
      "bufferView": 1,
      "componentType": 5126,
      "count": 6061,
      "max": [
        0.97913998365402222,
        0.99999797344207764
      ],
      "min": [
        0,
        0
      ],
      "type": "VEC2"
    },
    {
      "bufferView": 0,
      "componentType": 5125,
      "count": 33306,
      "max": [
        6060
      ],
      "min": [
        0
      ],
      "type": "SCALAR"
    }
  ],
  "asset": {
    "extras": {
      "author": "avi (https://sketchfab.com/avi)",
      "license": "CC-BY-4.0 (http://creativecommons.org/licenses/by/4.0/)",
      "source": "https://sketchfab.com/3d-models/leonidas-of-sparta-9a49f938f6b549179db54689596b4d64",
      "title": "Leonidas Of Sparta"
    },
    "generator": "Sketchfab-5.0.1",
    "version": "2.0"
  },
  "bufferViews": [
    {
      "buffer": 0,
      "byteLength": 133224,
      "byteOffset": 0,
      "name": "floatBufferViews",
      "target": 34963
    },
    {
      "buffer": 0,
      "byteLength": 48488,
      "byteOffset": 133224,
      "byteStride": 8,
      "name": "floatBufferViews",
      "target": 34962
    },
    {
      "buffer": 0,
      "byteLength": 145464,
      "byteOffset": 181712,
      "byteStride": 12,
      "name": "floatBufferViews",
      "target": 34962
    },
    {
      "buffer": 0,
      "byteLength": 96976,
      "byteOffset": 327176,
      "byteStride": 16,
      "name": "floatBufferViews",
      "target": 34962
    }
  ],
  "buffers": [
    {
      "byteLength": 424152,
      "uri": "scene.bin"
    }
  ],
  "extensionsUsed": [
    "KHR_materials_unlit"
  ],
  "images": [
    {
      "uri": "textures/leonidas.1001_baseColor.png"
    }
  ],
  "materials": [
    {
      "doubleSided": true,
      "emissiveFactor": [
        0,
        0,
        0
      ],
      "extensions": {
        "KHR_materials_unlit": {}
      },
      "name": "leonidas.1001",
      "pbrMetallicRoughness": {
        "baseColorFactor": [
          1,
          1,
          1,
          1
        ],
        "baseColorTexture": {
          "index": 0,
          "texCoord": 0
        },
        "metallicFactor": 0,
        "roughnessFactor": 1
      }
    }
  ],
  "meshes": [
    {
      "primitives": [
        {
          "attributes": {
            "NORMAL": 1,
            "POSITION": 0,
            "TANGENT": 2,
            "TEXCOORD_0": 3
          },
          "indices": 4,
          "material": 0,
          "mode": 4
        }
      ]
    }
  ],
  "nodes": [
    {
      "children": [
        1
      ],
      "name": "RootNode (gltf orientation matrix)",
      "rotation": [
        -0.70710678118654746,
        -0,
        -0,
        0.70710678118654757
      ]
    },
    {
      "children": [
        2
      ],
      "matrix": [
        0.6572270393371582,
        0.75363016128540039,
        0.0097017623484134674,
        0,
        -0.044044088572263718,
        0.051253985613584518,
        -0.99771398305892944,
        0,
        -0.75240463018417358,
        0.65529733896255493,
        0.066878460347652435,
        0,
        -0.86841005086898804,
        -16.086179733276367,
        -17.168500900268555,
        1
      ],
      "name": "RootNode (model correction matrix)"
    },
    {
      "children": [
        3
      ],
      "name": "leonidas.obj.cleaner.materialmerger.gles"
    },
    {
      "mesh": 0,
      "name": ""
    }
  ],
  "samplers": [
    {
      "magFilter": 9729,
      "minFilter": 9987,
      "wrapS": 10497,
      "wrapT": 10497
    }
  ],
  "scene": 0,
  "scenes": [
    {
      "name": "OSG_Scene",
      "nodes": [
        0
      ]
    }
  ],
  "textures": [
    {
      "sampler": 0,
      "source": 0
    }
  ]
}

