<svg version="1.1" viewBox="0.0 0.0 600.0 371.0" fill="none" stroke="none" stroke-linecap="square" stroke-miterlimit="10" width="600" height="371" xmlns:xlink="http://www.w3.org/1999/xlink" xmlns="http://www.w3.org/2000/svg"><path fill="#ffffff" d="M0 0L600.0 0L600.0 371.0L0 371.0L0 0Z" fill-rule="nonzero"/><path stroke="#333333" stroke-width="1.0" stroke-linecap="butt" d="M77.5 313.5L581.5 313.5" fill-rule="nonzero"/><path stroke="#cccccc" stroke-width="1.0" stroke-linecap="butt" d="M77.5 256.5L581.5 256.5" fill-rule="nonzero"/><path stroke="#cccccc" stroke-width="1.0" stroke-linecap="butt" d="M77.5 199.5L581.5 199.5" fill-rule="nonzero"/><path stroke="#cccccc" stroke-width="1.0" stroke-linecap="butt" d="M77.5 143.5L581.5 143.5" fill-rule="nonzero"/><path stroke="#cccccc" stroke-width="1.0" stroke-linecap="butt" d="M77.5 86.5L581.5 86.5" fill-rule="nonzero"/><clipPath id="id_0"><path d="M77.55 86.28333L581.45 86.28333L581.45 313.45L77.55 313.45L77.55 86.28333Z" clip-rule="nonzero"/></clipPath><path stroke="#000000" stroke-width="2.0" stroke-linecap="butt" stroke-opacity="0.0" clip-path="url(#id_0)" d="M178.0 313.0L130.0 313.0L130.0 142.0C130.0 140.89543 130.89543 140.0 132.0 140.0L176.0 140.0C177.10457 140.0 178.0 140.89543 178.0 142.0Z" fill-rule="nonzero"/><path fill="#4285f4" clip-path="url(#id_0)" d="M178.0 313.0L130.0 313.0L130.0 142.0C130.0 140.89543 130.89543 140.0 132.0 140.0L176.0 140.0C177.10457 140.0 178.0 140.89543 178.0 142.0Z" fill-rule="nonzero"/><path stroke="#000000" stroke-width="2.0" stroke-linecap="butt" stroke-opacity="0.0" clip-path="url(#id_0)" d="M329.0 313.0L281.0 313.0L281.0 199.0C281.0 197.89543 281.89542 197.0 283.0 197.0L327.0 197.0C328.10458 197.0 329.0 197.89543 329.0 199.0Z" fill-rule="nonzero"/><path fill="#4285f4" clip-path="url(#id_0)" d="M329.0 313.0L281.0 313.0L281.0 199.0C281.0 197.89543 281.89542 197.0 283.0 197.0L327.0 197.0C328.10458 197.0 329.0 197.89543 329.0 199.0Z" fill-rule="nonzero"/><path stroke="#000000" stroke-width="2.0" stroke-linecap="butt" stroke-opacity="0.0" clip-path="url(#id_0)" d="M479.0 313.0L431.0 313.0L431.0 264.0C431.0 262.89542 431.89542 262.0 433.0 262.0L477.0 262.0C478.10458 262.0 479.0 262.89542 479.0 264.0Z" fill-rule="nonzero"/><path fill="#4285f4" clip-path="url(#id_0)" d="M479.0 313.0L431.0 313.0L431.0 264.0C431.0 262.89542 431.89542 262.0 433.0 262.0L477.0 262.0C478.10458 262.0 479.0 262.89542 479.0 264.0Z" fill-rule="nonzero"/><path stroke="#000000" stroke-width="2.0" stroke-linecap="butt" stroke-opacity="0.0" clip-path="url(#id_0)" d="M227.0 313.0L179.0 313.0L179.0 138.0C179.0 136.89543 179.89543 136.0 181.0 136.0L225.0 136.0C226.10457 136.0 227.0 136.89543 227.0 138.0Z" fill-rule="nonzero"/><path fill="#ea4335" clip-path="url(#id_0)" d="M227.0 313.0L179.0 313.0L179.0 138.0C179.0 136.89543 179.89543 136.0 181.0 136.0L225.0 136.0C226.10457 136.0 227.0 136.89543 227.0 138.0Z" fill-rule="nonzero"/><path stroke="#000000" stroke-width="2.0" stroke-linecap="butt" stroke-opacity="0.0" clip-path="url(#id_0)" d="M378.0 313.0L330.0 313.0L330.0 196.0C330.0 194.89543 330.89542 194.0 332.0 194.0L376.0 194.0C377.10458 194.0 378.0 194.89543 378.0 196.0Z" fill-rule="nonzero"/><path fill="#ea4335" clip-path="url(#id_0)" d="M378.0 313.0L330.0 313.0L330.0 196.0C330.0 194.89543 330.89542 194.0 332.0 194.0L376.0 194.0C377.10458 194.0 378.0 194.89543 378.0 196.0Z" fill-rule="nonzero"/><path stroke="#000000" stroke-width="2.0" stroke-linecap="butt" stroke-opacity="0.0" clip-path="url(#id_0)" d="M528.0 313.0L480.0 313.0L480.0 260.0C480.0 258.89542 480.89542 258.0 482.0 258.0L526.0 258.0C527.10455 258.0 528.0 258.89542 528.0 260.0Z" fill-rule="nonzero"/><path fill="#ea4335" clip-path="url(#id_0)" d="M528.0 313.0L480.0 313.0L480.0 260.0C480.0 258.89542 480.89542 258.0 482.0 258.0L526.0 258.0C527.10455 258.0 528.0 258.89542 528.0 260.0Z" fill-rule="nonzero"/><path stroke="#4285f4" stroke-width="3.0" stroke-linejoin="round" stroke-linecap="round" d="M136.96875 148.64842L136.96875 149.55467L136.76562 149.55467Q135.5 149.58592 134.75 150.3203Q134.0 151.03905 133.875 152.35155Q134.5625 151.58592 135.71875 151.58592Q136.82812 151.58592 137.5 152.36717Q138.17188 153.14842 138.17188 154.39842Q138.17188 155.71092 137.45312 156.5078Q136.73438 157.30467 135.51562 157.30467Q134.29688 157.30467 133.53125 156.36717Q132.78125 155.41405 132.78125 153.92967L132.78125 153.52342Q132.78125 151.16405 133.78125 149.91405Q134.78125 148.66405 136.76562 148.64842L136.96875 148.64842ZM135.54688 152.49217Q134.98438 152.49217 134.51562 152.8203Q134.04688 153.14842 133.85938 153.66405L133.85938 154.05467Q133.85938 155.11717 134.32812 155.7578Q134.8125 156.39842 135.51562 156.39842Q136.25 156.39842 136.67188 155.86717Q137.09375 155.3203 137.09375 154.4453Q137.09375 153.5703 136.67188 153.03905Q136.25 152.49217 135.54688 152.49217ZM145.0625 153.53905Q145.0625 155.4453 144.40625 156.3828Q143.76562 157.30467 142.375 157.30467Q141.01562 157.30467 140.35938 156.39842Q139.70312 155.49217 139.67188 153.67967L139.67188 152.24217Q139.67188 150.35155 140.3125 149.4453Q140.96875 148.52342 142.35938 148.52342Q143.73438 148.52342 144.39062 149.41405Q145.04688 150.28905 145.0625 152.1328L145.0625 153.53905ZM143.96875 152.05467Q143.96875 150.67967 143.57812 150.05467Q143.20312 149.41405 142.35938 149.41405Q141.53125 149.41405 141.14062 150.05467Q140.76562 150.67967 140.76562 151.97655L140.76562 153.71092Q140.76562 155.08592 141.15625 155.7578Q141.5625 156.41405 142.375 156.41405Q143.17188 156.41405 143.5625 155.78905Q143.95312 155.16405 143.96875 153.83592L143.96875 152.05467ZM146.84375 156.61717Q146.84375 156.33592 147.0 156.14842Q147.17188 155.96092 147.5 155.96092Q147.84375 155.96092 148.01562 156.14842Q148.1875 156.33592 148.1875 156.61717Q148.1875 156.8828 148.01562 157.0703Q147.84375 157.24217 147.5 157.24217Q147.17188 157.24217 147.0 157.0703Q146.84375 156.8828 146.84375 156.61717ZM153.85938 153.42967Q153.53125 153.83592 153.04688 154.08592Q152.57812 154.3203 152.01562 154.3203Q151.28125 154.3203 150.73438 153.96092Q150.1875 153.60155 149.89062 152.9453Q149.59375 152.27342 149.59375 151.47655Q149.59375 150.6328 149.90625 149.9453Q150.23438 149.2578 150.82812 148.89842Q151.4375 148.52342 152.23438 148.52342Q153.5 148.52342 154.21875 149.47655Q154.95312 150.42967 154.95312 152.05467L154.95312 152.36717Q154.95312 154.86717 153.96875 156.0078Q152.98438 157.14842 151.0 157.17967L150.78125 157.17967L150.78125 156.27342L151.01562 156.27342Q152.35938 156.24217 153.07812 155.5703Q153.79688 154.89842 153.85938 153.42967ZM152.1875 153.42967Q152.73438 153.42967 153.1875 153.10155Q153.65625 152.7578 153.875 152.27342L153.875 151.83592Q153.875 150.77342 153.40625 150.10155Q152.9375 149.42967 152.23438 149.42967Q151.51562 149.42967 151.07812 149.97655Q150.65625 150.52342 150.65625 151.42967Q150.65625 152.30467 151.0625 152.86717Q151.48438 153.42967 152.1875 153.42967ZM161.28125 154.3203L162.46875 154.3203L162.46875 155.1953L161.28125 155.1953L161.28125 157.17967L160.20312 157.17967L160.20312 155.1953L156.3125 155.1953L156.3125 154.55467L160.125 148.64842L161.28125 148.64842L161.28125 154.3203ZM157.54688 154.3203L160.20312 154.3203L160.20312 150.1328L160.0625 150.36717L157.54688 154.3203ZM167.85938 153.42967Q167.53125 153.83592 167.04688 154.08592Q166.57812 154.3203 166.01562 154.3203Q165.28125 154.3203 164.73438 153.96092Q164.1875 153.60155 163.89062 152.9453Q163.59375 152.27342 163.59375 151.47655Q163.59375 150.6328 163.90625 149.9453Q164.23438 149.2578 164.82812 148.89842Q165.4375 148.52342 166.23438 148.52342Q167.5 148.52342 168.21875 149.47655Q168.95312 150.42967 168.95312 152.05467L168.95312 152.36717Q168.95312 154.86717 167.96875 156.0078Q166.98438 157.14842 165.0 157.17967L164.78125 157.17967L164.78125 156.27342L165.01562 156.27342Q166.35938 156.24217 167.07812 155.5703Q167.79688 154.89842 167.85938 153.42967ZM166.1875 153.42967Q166.73438 153.42967 167.1875 153.10155Q167.65625 152.7578 167.875 152.27342L167.875 151.83592Q167.875 150.77342 167.40625 150.10155Q166.9375 149.42967 166.23438 149.42967Q165.51562 149.42967 165.07812 149.97655Q164.65625 150.52342 164.65625 151.42967Q164.65625 152.30467 165.0625 152.86717Q165.48438 153.42967 166.1875 153.42967ZM176.29688 157.17967L170.70312 157.17967L170.70312 156.39842L173.65625 153.11717Q174.3125 152.36717 174.5625 151.91405Q174.8125 151.4453 174.8125 150.9453Q174.8125 150.27342 174.40625 149.85155Q174.01562 149.41405 173.32812 149.41405Q172.53125 149.41405 172.07812 149.8828Q171.625 150.33592 171.625 151.16405L170.54688 151.16405Q170.54688 149.97655 171.29688 149.2578Q172.0625 148.52342 173.32812 148.52342Q174.53125 148.52342 175.21875 149.14842Q175.90625 149.77342 175.90625 150.8203Q175.90625 152.0703 174.29688 153.8203L172.01562 156.28905L176.29688 156.28905L176.29688 157.17967Z" fill-rule="nonzero"/><path fill="#ffffff" d="M136.96875 148.64842L136.96875 149.55467L136.76562 149.55467Q135.5 149.58592 134.75 150.3203Q134.0 151.03905 133.875 152.35155Q134.5625 151.58592 135.71875 151.58592Q136.82812 151.58592 137.5 152.36717Q138.17188 153.14842 138.17188 154.39842Q138.17188 155.71092 137.45312 156.5078Q136.73438 157.30467 135.51562 157.30467Q134.29688 157.30467 133.53125 156.36717Q132.78125 155.41405 132.78125 153.92967L132.78125 153.52342Q132.78125 151.16405 133.78125 149.91405Q134.78125 148.66405 136.76562 148.64842L136.96875 148.64842ZM135.54688 152.49217Q134.98438 152.49217 134.51562 152.8203Q134.04688 153.14842 133.85938 153.66405L133.85938 154.05467Q133.85938 155.11717 134.32812 155.7578Q134.8125 156.39842 135.51562 156.39842Q136.25 156.39842 136.67188 155.86717Q137.09375 155.3203 137.09375 154.4453Q137.09375 153.5703 136.67188 153.03905Q136.25 152.49217 135.54688 152.49217ZM145.0625 153.53905Q145.0625 155.4453 144.40625 156.3828Q143.76562 157.30467 142.375 157.30467Q141.01562 157.30467 140.35938 156.39842Q139.70312 155.49217 139.67188 153.67967L139.67188 152.24217Q139.67188 150.35155 140.3125 149.4453Q140.96875 148.52342 142.35938 148.52342Q143.73438 148.52342 144.39062 149.41405Q145.04688 150.28905 145.0625 152.1328L145.0625 153.53905ZM143.96875 152.05467Q143.96875 150.67967 143.57812 150.05467Q143.20312 149.41405 142.35938 149.41405Q141.53125 149.41405 141.14062 150.05467Q140.76562 150.67967 140.76562 151.97655L140.76562 153.71092Q140.76562 155.08592 141.15625 155.7578Q141.5625 156.41405 142.375 156.41405Q143.17188 156.41405 143.5625 155.78905Q143.95312 155.16405 143.96875 153.83592L143.96875 152.05467ZM146.84375 156.61717Q146.84375 156.33592 147.0 156.14842Q147.17188 155.96092 147.5 155.96092Q147.84375 155.96092 148.01562 156.14842Q148.1875 156.33592 148.1875 156.61717Q148.1875 156.8828 148.01562 157.0703Q147.84375 157.24217 147.5 157.24217Q147.17188 157.24217 147.0 157.0703Q146.84375 156.8828 146.84375 156.61717ZM153.85938 153.42967Q153.53125 153.83592 153.04688 154.08592Q152.57812 154.3203 152.01562 154.3203Q151.28125 154.3203 150.73438 153.96092Q150.1875 153.60155 149.89062 152.9453Q149.59375 152.27342 149.59375 151.47655Q149.59375 150.6328 149.90625 149.9453Q150.23438 149.2578 150.82812 148.89842Q151.4375 148.52342 152.23438 148.52342Q153.5 148.52342 154.21875 149.47655Q154.95312 150.42967 154.95312 152.05467L154.95312 152.36717Q154.95312 154.86717 153.96875 156.0078Q152.98438 157.14842 151.0 157.17967L150.78125 157.17967L150.78125 156.27342L151.01562 156.27342Q152.35938 156.24217 153.07812 155.5703Q153.79688 154.89842 153.85938 153.42967ZM152.1875 153.42967Q152.73438 153.42967 153.1875 153.10155Q153.65625 152.7578 153.875 152.27342L153.875 151.83592Q153.875 150.77342 153.40625 150.10155Q152.9375 149.42967 152.23438 149.42967Q151.51562 149.42967 151.07812 149.97655Q150.65625 150.52342 150.65625 151.42967Q150.65625 152.30467 151.0625 152.86717Q151.48438 153.42967 152.1875 153.42967ZM161.28125 154.3203L162.46875 154.3203L162.46875 155.1953L161.28125 155.1953L161.28125 157.17967L160.20312 157.17967L160.20312 155.1953L156.3125 155.1953L156.3125 154.55467L160.125 148.64842L161.28125 148.64842L161.28125 154.3203ZM157.54688 154.3203L160.20312 154.3203L160.20312 150.1328L160.0625 150.36717L157.54688 154.3203ZM167.85938 153.42967Q167.53125 153.83592 167.04688 154.08592Q166.57812 154.3203 166.01562 154.3203Q165.28125 154.3203 164.73438 153.96092Q164.1875 153.60155 163.89062 152.9453Q163.59375 152.27342 163.59375 151.47655Q163.59375 150.6328 163.90625 149.9453Q164.23438 149.2578 164.82812 148.89842Q165.4375 148.52342 166.23438 148.52342Q167.5 148.52342 168.21875 149.47655Q168.95312 150.42967 168.95312 152.05467L168.95312 152.36717Q168.95312 154.86717 167.96875 156.0078Q166.98438 157.14842 165.0 157.17967L164.78125 157.17967L164.78125 156.27342L165.01562 156.27342Q166.35938 156.24217 167.07812 155.5703Q167.79688 154.89842 167.85938 153.42967ZM166.1875 153.42967Q166.73438 153.42967 167.1875 153.10155Q167.65625 152.7578 167.875 152.27342L167.875 151.83592Q167.875 150.77342 167.40625 150.10155Q166.9375 149.42967 166.23438 149.42967Q165.51562 149.42967 165.07812 149.97655Q164.65625 150.52342 164.65625 151.42967Q164.65625 152.30467 165.0625 152.86717Q165.48438 153.42967 166.1875 153.42967ZM176.29688 157.17967L170.70312 157.17967L170.70312 156.39842L173.65625 153.11717Q174.3125 152.36717 174.5625 151.91405Q174.8125 151.4453 174.8125 150.9453Q174.8125 150.27342 174.40625 149.85155Q174.01562 149.41405 173.32812 149.41405Q172.53125 149.41405 172.07812 149.8828Q171.625 150.33592 171.625 151.16405L170.54688 151.16405Q170.54688 149.97655 171.29688 149.2578Q172.0625 148.52342 173.32812 148.52342Q174.53125 148.52342 175.21875 149.14842Q175.90625 149.77342 175.90625 150.8203Q175.90625 152.0703 174.29688 153.8203L172.01562 156.28905L176.29688 156.28905L176.29688 157.17967Z" fill-rule="nonzero"/><path stroke="#4285f4" stroke-width="3.0" stroke-linejoin="round" stroke-linecap="round" d="M295.28125 211.19487L296.46875 211.19487L296.46875 212.06987L295.28125 212.06987L295.28125 214.05424L294.20312 214.05424L294.20312 212.06987L290.3125 212.06987L290.3125 211.42924L294.125 205.523L295.28125 205.523L295.28125 211.19487ZM291.54688 211.19487L294.20312 211.19487L294.20312 207.00737L294.0625 207.24174L291.54688 211.19487ZM303.0625 210.41362Q303.0625 212.31987 302.40625 213.25737Q301.76562 214.17924 300.375 214.17924Q299.01562 214.17924 298.35938 213.273Q297.70312 212.36674 297.67188 210.55424L297.67188 209.11674Q297.67188 207.22612 298.3125 206.31987Q298.96875 205.398 300.35938 205.398Q301.73438 205.398 302.39062 206.28862Q303.04688 207.16362 303.0625 209.00737L303.0625 210.41362ZM301.96875 208.92924Q301.96875 207.55424 301.57812 206.92924Q301.20312 206.28862 300.35938 206.28862Q299.53125 206.28862 299.14062 206.92924Q298.76562 207.55424 298.76562 208.85112L298.76562 210.5855Q298.76562 211.9605 299.15625 212.63237Q299.5625 213.28862 300.375 213.28862Q301.17188 213.28862 301.5625 212.66362Q301.95312 212.03862 301.96875 210.7105L301.96875 208.92924ZM304.84375 213.49174Q304.84375 213.2105 305.0 213.023Q305.17188 212.8355 305.5 212.8355Q305.84375 212.8355 306.01562 213.023Q306.1875 213.2105 306.1875 213.49174Q306.1875 213.75737 306.01562 213.94487Q305.84375 214.11674 305.5 214.11674Q305.17188 214.11674 305.0 213.94487Q304.84375 213.75737 304.84375 213.49174ZM311.85938 210.30424Q311.53125 210.7105 311.04688 210.9605Q310.57812 211.19487 310.01562 211.19487Q309.28125 211.19487 308.73438 210.8355Q308.1875 210.47612 307.89062 209.81987Q307.59375 209.148 307.59375 208.35112Q307.59375 207.50737 307.90625 206.81987Q308.23438 206.13237 308.82812 205.773Q309.4375 205.398 310.23438 205.398Q311.5 205.398 312.21875 206.35112Q312.95312 207.30424 312.95312 208.92924L312.95312 209.24174Q312.95312 211.74174 311.96875 212.88237Q310.98438 214.023 309.0 214.05424L308.78125 214.05424L308.78125 213.148L309.01562 213.148Q310.35938 213.11674 311.07812 212.44487Q311.79688 211.773 311.85938 210.30424ZM310.1875 210.30424Q310.73438 210.30424 311.1875 209.97612Q311.65625 209.63237 311.875 209.148L311.875 208.7105Q311.875 207.648 311.40625 206.97612Q310.9375 206.30424 310.23438 206.30424Q309.51562 206.30424 309.07812 206.85112Q308.65625 207.398 308.65625 208.30424Q308.65625 209.17924 309.0625 209.74174Q309.48438 210.30424 310.1875 210.30424ZM320.29688 214.05424L314.70312 214.05424L314.70312 213.273L317.65625 209.99174Q318.3125 209.24174 318.5625 208.78862Q318.8125 208.31987 318.8125 207.81987Q318.8125 207.148 318.40625 206.72612Q318.01562 206.28862 317.32812 206.28862Q316.53125 206.28862 316.07812 206.75737Q315.625 207.2105 315.625 208.03862L314.54688 208.03862Q314.54688 206.85112 315.29688 206.13237Q316.0625 205.398 317.32812 205.398Q318.53125 205.398 319.21875 206.023Q319.90625 206.648 319.90625 207.69487Q319.90625 208.94487 318.29688 210.69487L316.01562 213.16362L320.29688 213.16362L320.29688 214.05424Z" fill-rule="nonzero"/><path fill="#ffffff" d="M295.28125 211.19487L296.46875 211.19487L296.46875 212.06987L295.28125 212.06987L295.28125 214.05424L294.20312 214.05424L294.20312 212.06987L290.3125 212.06987L290.3125 211.42924L294.125 205.523L295.28125 205.523L295.28125 211.19487ZM291.54688 211.19487L294.20312 211.19487L294.20312 207.00737L294.0625 207.24174L291.54688 211.19487ZM303.0625 210.41362Q303.0625 212.31987 302.40625 213.25737Q301.76562 214.17924 300.375 214.17924Q299.01562 214.17924 298.35938 213.273Q297.70312 212.36674 297.67188 210.55424L297.67188 209.11674Q297.67188 207.22612 298.3125 206.31987Q298.96875 205.398 300.35938 205.398Q301.73438 205.398 302.39062 206.28862Q303.04688 207.16362 303.0625 209.00737L303.0625 210.41362ZM301.96875 208.92924Q301.96875 207.55424 301.57812 206.92924Q301.20312 206.28862 300.35938 206.28862Q299.53125 206.28862 299.14062 206.92924Q298.76562 207.55424 298.76562 208.85112L298.76562 210.5855Q298.76562 211.9605 299.15625 212.63237Q299.5625 213.28862 300.375 213.28862Q301.17188 213.28862 301.5625 212.66362Q301.95312 212.03862 301.96875 210.7105L301.96875 208.92924ZM304.84375 213.49174Q304.84375 213.2105 305.0 213.023Q305.17188 212.8355 305.5 212.8355Q305.84375 212.8355 306.01562 213.023Q306.1875 213.2105 306.1875 213.49174Q306.1875 213.75737 306.01562 213.94487Q305.84375 214.11674 305.5 214.11674Q305.17188 214.11674 305.0 213.94487Q304.84375 213.75737 304.84375 213.49174ZM311.85938 210.30424Q311.53125 210.7105 311.04688 210.9605Q310.57812 211.19487 310.01562 211.19487Q309.28125 211.19487 308.73438 210.8355Q308.1875 210.47612 307.89062 209.81987Q307.59375 209.148 307.59375 208.35112Q307.59375 207.50737 307.90625 206.81987Q308.23438 206.13237 308.82812 205.773Q309.4375 205.398 310.23438 205.398Q311.5 205.398 312.21875 206.35112Q312.95312 207.30424 312.95312 208.92924L312.95312 209.24174Q312.95312 211.74174 311.96875 212.88237Q310.98438 214.023 309.0 214.05424L308.78125 214.05424L308.78125 213.148L309.01562 213.148Q310.35938 213.11674 311.07812 212.44487Q311.79688 211.773 311.85938 210.30424ZM310.1875 210.30424Q310.73438 210.30424 311.1875 209.97612Q311.65625 209.63237 311.875 209.148L311.875 208.7105Q311.875 207.648 311.40625 206.97612Q310.9375 206.30424 310.23438 206.30424Q309.51562 206.30424 309.07812 206.85112Q308.65625 207.398 308.65625 208.30424Q308.65625 209.17924 309.0625 209.74174Q309.48438 210.30424 310.1875 210.30424ZM320.29688 214.05424L314.70312 214.05424L314.70312 213.273L317.65625 209.99174Q318.3125 209.24174 318.5625 208.78862Q318.8125 208.31987 318.8125 207.81987Q318.8125 207.148 318.40625 206.72612Q318.01562 206.28862 317.32812 206.28862Q316.53125 206.28862 316.07812 206.75737Q315.625 207.2105 315.625 208.03862L314.54688 208.03862Q314.54688 206.85112 315.29688 206.13237Q316.0625 205.398 317.32812 205.398Q318.53125 205.398 319.21875 206.023Q319.90625 206.648 319.90625 207.69487Q319.90625 208.94487 318.29688 210.69487L316.01562 213.16362L320.29688 213.16362L320.29688 214.05424Z" fill-rule="nonzero"/><path stroke="#4285f4" stroke-width="3.0" stroke-linejoin="round" stroke-linecap="round" d="M444.26562 278.3992L443.1875 278.3992L443.1875 271.18045L441.0 271.97733L441.0 270.99295L444.10938 269.82108L444.26562 269.82108L444.26562 278.3992ZM452.89062 272.0867Q452.89062 272.72733 452.54688 273.22733Q452.20312 273.72733 451.64062 274.00858Q452.29688 274.28983 452.6875 274.85233Q453.07812 275.3992 453.07812 276.10233Q453.07812 277.19608 452.32812 277.86795Q451.59375 278.5242 450.375 278.5242Q449.14062 278.5242 448.39062 277.86795Q447.65625 277.19608 447.65625 276.10233Q447.65625 275.3992 448.03125 274.85233Q448.40625 274.28983 449.07812 274.00858Q448.51562 273.72733 448.1875 273.22733Q447.85938 272.72733 447.85938 272.0867Q447.85938 271.00858 448.54688 270.38358Q449.23438 269.74295 450.375 269.74295Q451.5 269.74295 452.1875 270.38358Q452.89062 271.00858 452.89062 272.0867ZM452.0 276.07108Q452.0 275.35233 451.54688 274.91483Q451.09375 274.4617 450.35938 274.4617Q449.625 274.4617 449.17188 274.91483Q448.73438 275.35233 448.73438 276.0867Q448.73438 276.80545 449.17188 277.22733Q449.60938 277.63358 450.375 277.63358Q451.125 277.63358 451.5625 277.2117Q452.0 276.78983 452.0 276.07108ZM450.375 270.63358Q449.73438 270.63358 449.32812 271.03983Q448.9375 271.43045 448.9375 272.11795Q448.9375 272.75858 449.32812 273.16483Q449.71875 273.57108 450.35938 273.57108Q451.01562 273.57108 451.40625 273.16483Q451.79688 272.75858 451.79688 272.11795Q451.79688 271.4617 451.39062 271.05545Q450.98438 270.63358 450.375 270.63358ZM454.84375 277.8367Q454.84375 277.55545 455.0 277.36795Q455.17188 277.18045 455.5 277.18045Q455.84375 277.18045 456.01562 277.36795Q456.1875 277.55545 456.1875 277.8367Q456.1875 278.10233 456.01562 278.28983Q455.84375 278.4617 455.5 278.4617Q455.17188 278.4617 455.0 278.28983Q454.84375 278.10233 454.84375 277.8367ZM463.29688 278.3992L457.70312 278.3992L457.70312 277.61795L460.65625 274.3367Q461.3125 273.5867 461.5625 273.13358Q461.8125 272.66483 461.8125 272.16483Q461.8125 271.49295 461.40625 271.07108Q461.01562 270.63358 460.32812 270.63358Q459.53125 270.63358 459.07812 271.10233Q458.625 271.55545 458.625 272.38358L457.54688 272.38358Q457.54688 271.19608 458.29688 270.47733Q459.0625 269.74295 460.32812 269.74295Q461.53125 269.74295 462.21875 270.36795Q462.90625 270.99295 462.90625 272.03983Q462.90625 273.28983 461.29688 275.03983L459.01562 277.50858L463.29688 277.50858L463.29688 278.3992ZM468.96875 269.86795L468.96875 270.7742L468.76562 270.7742Q467.5 270.80545 466.75 271.53983Q466.0 272.25858 465.875 273.57108Q466.5625 272.80545 467.71875 272.80545Q468.82812 272.80545 469.5 273.5867Q470.17188 274.36795 470.17188 275.61795Q470.17188 276.93045 469.45312 277.72733Q468.73438 278.5242 467.51562 278.5242Q466.29688 278.5242 465.53125 277.5867Q464.78125 276.63358 464.78125 275.1492L464.78125 274.74295Q464.78125 272.38358 465.78125 271.13358Q466.78125 269.88358 468.76562 269.86795L468.96875 269.86795ZM467.54688 273.7117Q466.98438 273.7117 466.51562 274.03983Q466.04688 274.36795 465.85938 274.88358L465.85938 275.2742Q465.85938 276.3367 466.32812 276.97733Q466.8125 277.61795 467.51562 277.61795Q468.25 277.61795 468.67188 277.0867Q469.09375 276.53983 469.09375 275.66483Q469.09375 274.78983 468.67188 274.25858Q468.25 273.7117 467.54688 273.7117Z" fill-rule="nonzero"/><path fill="#ffffff" d="M444.26562 278.3992L443.1875 278.3992L443.1875 271.18045L441.0 271.97733L441.0 270.99295L444.10938 269.82108L444.26562 269.82108L444.26562 278.3992ZM452.89062 272.0867Q452.89062 272.72733 452.54688 273.22733Q452.20312 273.72733 451.64062 274.00858Q452.29688 274.28983 452.6875 274.85233Q453.07812 275.3992 453.07812 276.10233Q453.07812 277.19608 452.32812 277.86795Q451.59375 278.5242 450.375 278.5242Q449.14062 278.5242 448.39062 277.86795Q447.65625 277.19608 447.65625 276.10233Q447.65625 275.3992 448.03125 274.85233Q448.40625 274.28983 449.07812 274.00858Q448.51562 273.72733 448.1875 273.22733Q447.85938 272.72733 447.85938 272.0867Q447.85938 271.00858 448.54688 270.38358Q449.23438 269.74295 450.375 269.74295Q451.5 269.74295 452.1875 270.38358Q452.89062 271.00858 452.89062 272.0867ZM452.0 276.07108Q452.0 275.35233 451.54688 274.91483Q451.09375 274.4617 450.35938 274.4617Q449.625 274.4617 449.17188 274.91483Q448.73438 275.35233 448.73438 276.0867Q448.73438 276.80545 449.17188 277.22733Q449.60938 277.63358 450.375 277.63358Q451.125 277.63358 451.5625 277.2117Q452.0 276.78983 452.0 276.07108ZM450.375 270.63358Q449.73438 270.63358 449.32812 271.03983Q448.9375 271.43045 448.9375 272.11795Q448.9375 272.75858 449.32812 273.16483Q449.71875 273.57108 450.35938 273.57108Q451.01562 273.57108 451.40625 273.16483Q451.79688 272.75858 451.79688 272.11795Q451.79688 271.4617 451.39062 271.05545Q450.98438 270.63358 450.375 270.63358ZM454.84375 277.8367Q454.84375 277.55545 455.0 277.36795Q455.17188 277.18045 455.5 277.18045Q455.84375 277.18045 456.01562 277.36795Q456.1875 277.55545 456.1875 277.8367Q456.1875 278.10233 456.01562 278.28983Q455.84375 278.4617 455.5 278.4617Q455.17188 278.4617 455.0 278.28983Q454.84375 278.10233 454.84375 277.8367ZM463.29688 278.3992L457.70312 278.3992L457.70312 277.61795L460.65625 274.3367Q461.3125 273.5867 461.5625 273.13358Q461.8125 272.66483 461.8125 272.16483Q461.8125 271.49295 461.40625 271.07108Q461.01562 270.63358 460.32812 270.63358Q459.53125 270.63358 459.07812 271.10233Q458.625 271.55545 458.625 272.38358L457.54688 272.38358Q457.54688 271.19608 458.29688 270.47733Q459.0625 269.74295 460.32812 269.74295Q461.53125 269.74295 462.21875 270.36795Q462.90625 270.99295 462.90625 272.03983Q462.90625 273.28983 461.29688 275.03983L459.01562 277.50858L463.29688 277.50858L463.29688 278.3992ZM468.96875 269.86795L468.96875 270.7742L468.76562 270.7742Q467.5 270.80545 466.75 271.53983Q466.0 272.25858 465.875 273.57108Q466.5625 272.80545 467.71875 272.80545Q468.82812 272.80545 469.5 273.5867Q470.17188 274.36795 470.17188 275.61795Q470.17188 276.93045 469.45312 277.72733Q468.73438 278.5242 467.51562 278.5242Q466.29688 278.5242 465.53125 277.5867Q464.78125 276.63358 464.78125 275.1492L464.78125 274.74295Q464.78125 272.38358 465.78125 271.13358Q466.78125 269.88358 468.76562 269.86795L468.96875 269.86795ZM467.54688 273.7117Q466.98438 273.7117 466.51562 274.03983Q466.04688 274.36795 465.85938 274.88358L465.85938 275.2742Q465.85938 276.3367 466.32812 276.97733Q466.8125 277.61795 467.51562 277.61795Q468.25 277.61795 468.67188 277.0867Q469.09375 276.53983 469.09375 275.66483Q469.09375 274.78983 468.67188 274.25858Q468.25 273.7117 467.54688 273.7117Z" fill-rule="nonzero"/><path stroke="#ea4335" stroke-width="3.0" stroke-linejoin="round" stroke-linecap="round" d="M189.46875 144.49467L189.46875 145.40092L189.26562 145.40092Q188.0 145.43217 187.25 146.16655Q186.5 146.8853 186.375 148.1978Q187.0625 147.43217 188.21875 147.43217Q189.32812 147.43217 190.0 148.21342Q190.67188 148.99467 190.67188 150.24467Q190.67188 151.55717 189.95312 152.35405Q189.23438 153.15092 188.01562 153.15092Q186.79688 153.15092 186.03125 152.21342Q185.28125 151.2603 185.28125 149.77592L185.28125 149.36967Q185.28125 147.0103 186.28125 145.7603Q187.28125 144.5103 189.26562 144.49467L189.46875 144.49467ZM188.04688 148.33842Q187.48438 148.33842 187.01562 148.66655Q186.54688 148.99467 186.35938 149.5103L186.35938 149.90092Q186.35938 150.96342 186.82812 151.60405Q187.3125 152.24467 188.01562 152.24467Q188.75 152.24467 189.17188 151.71342Q189.59375 151.16655 189.59375 150.29155Q189.59375 149.41655 189.17188 148.8853Q188.75 148.33842 188.04688 148.33842ZM197.79688 153.02592L192.20312 153.02592L192.20312 152.24467L195.15625 148.96342Q195.8125 148.21342 196.0625 147.7603Q196.3125 147.29155 196.3125 146.79155Q196.3125 146.11967 195.90625 145.6978Q195.51562 145.2603 194.82812 145.2603Q194.03125 145.2603 193.57812 145.72905Q193.125 146.18217 193.125 147.0103L192.04688 147.0103Q192.04688 145.8228 192.79688 145.10405Q193.5625 144.36967 194.82812 144.36967Q196.03125 144.36967 196.71875 144.99467Q197.40625 145.61967 197.40625 146.66655Q197.40625 147.91655 195.79688 149.66655L193.51562 152.1353L197.79688 152.1353L197.79688 153.02592ZM199.34375 152.46342Q199.34375 152.18217 199.5 151.99467Q199.67188 151.80717 200.0 151.80717Q200.34375 151.80717 200.51562 151.99467Q200.6875 152.18217 200.6875 152.46342Q200.6875 152.72905 200.51562 152.91655Q200.34375 153.08842 200.0 153.08842Q199.67188 153.08842 199.5 152.91655Q199.34375 152.72905 199.34375 152.46342ZM206.78125 150.16655L207.96875 150.16655L207.96875 151.04155L206.78125 151.04155L206.78125 153.02592L205.70312 153.02592L205.70312 151.04155L201.8125 151.04155L201.8125 150.40092L205.625 144.49467L206.78125 144.49467L206.78125 150.16655ZM203.04688 150.16655L205.70312 150.16655L205.70312 145.97905L205.5625 146.21342L203.04688 150.16655ZM212.76562 153.02592L211.6875 153.02592L211.6875 145.80717L209.5 146.60405L209.5 145.61967L212.60938 144.4478L212.76562 144.4478L212.76562 153.02592ZM221.79688 153.02592L216.20312 153.02592L216.20312 152.24467L219.15625 148.96342Q219.8125 148.21342 220.0625 147.7603Q220.3125 147.29155 220.3125 146.79155Q220.3125 146.11967 219.90625 145.6978Q219.51562 145.2603 218.82812 145.2603Q218.03125 145.2603 217.57812 145.72905Q217.125 146.18217 217.125 147.0103L216.04688 147.0103Q216.04688 145.8228 216.79688 145.10405Q217.5625 144.36967 218.82812 144.36967Q220.03125 144.36967 220.71875 144.99467Q221.40625 145.61967 221.40625 146.66655Q221.40625 147.91655 219.79688 149.66655L217.51562 152.1353L221.79688 152.1353L221.79688 153.02592Z" fill-rule="nonzero"/><path fill="#ffffff" d="M189.46875 144.49467L189.46875 145.40092L189.26562 145.40092Q188.0 145.43217 187.25 146.16655Q186.5 146.8853 186.375 148.1978Q187.0625 147.43217 188.21875 147.43217Q189.32812 147.43217 190.0 148.21342Q190.67188 148.99467 190.67188 150.24467Q190.67188 151.55717 189.95312 152.35405Q189.23438 153.15092 188.01562 153.15092Q186.79688 153.15092 186.03125 152.21342Q185.28125 151.2603 185.28125 149.77592L185.28125 149.36967Q185.28125 147.0103 186.28125 145.7603Q187.28125 144.5103 189.26562 144.49467L189.46875 144.49467ZM188.04688 148.33842Q187.48438 148.33842 187.01562 148.66655Q186.54688 148.99467 186.35938 149.5103L186.35938 149.90092Q186.35938 150.96342 186.82812 151.60405Q187.3125 152.24467 188.01562 152.24467Q188.75 152.24467 189.17188 151.71342Q189.59375 151.16655 189.59375 150.29155Q189.59375 149.41655 189.17188 148.8853Q188.75 148.33842 188.04688 148.33842ZM197.79688 153.02592L192.20312 153.02592L192.20312 152.24467L195.15625 148.96342Q195.8125 148.21342 196.0625 147.7603Q196.3125 147.29155 196.3125 146.79155Q196.3125 146.11967 195.90625 145.6978Q195.51562 145.2603 194.82812 145.2603Q194.03125 145.2603 193.57812 145.72905Q193.125 146.18217 193.125 147.0103L192.04688 147.0103Q192.04688 145.8228 192.79688 145.10405Q193.5625 144.36967 194.82812 144.36967Q196.03125 144.36967 196.71875 144.99467Q197.40625 145.61967 197.40625 146.66655Q197.40625 147.91655 195.79688 149.66655L193.51562 152.1353L197.79688 152.1353L197.79688 153.02592ZM199.34375 152.46342Q199.34375 152.18217 199.5 151.99467Q199.67188 151.80717 200.0 151.80717Q200.34375 151.80717 200.51562 151.99467Q200.6875 152.18217 200.6875 152.46342Q200.6875 152.72905 200.51562 152.91655Q200.34375 153.08842 200.0 153.08842Q199.67188 153.08842 199.5 152.91655Q199.34375 152.72905 199.34375 152.46342ZM206.78125 150.16655L207.96875 150.16655L207.96875 151.04155L206.78125 151.04155L206.78125 153.02592L205.70312 153.02592L205.70312 151.04155L201.8125 151.04155L201.8125 150.40092L205.625 144.49467L206.78125 144.49467L206.78125 150.16655ZM203.04688 150.16655L205.70312 150.16655L205.70312 145.97905L205.5625 146.21342L203.04688 150.16655ZM212.76562 153.02592L211.6875 153.02592L211.6875 145.80717L209.5 146.60405L209.5 145.61967L212.60938 144.4478L212.76562 144.4478L212.76562 153.02592ZM221.79688 153.02592L216.20312 153.02592L216.20312 152.24467L219.15625 148.96342Q219.8125 148.21342 220.0625 147.7603Q220.3125 147.29155 220.3125 146.79155Q220.3125 146.11967 219.90625 145.6978Q219.51562 145.2603 218.82812 145.2603Q218.03125 145.2603 217.57812 145.72905Q217.125 146.18217 217.125 147.0103L216.04688 147.0103Q216.04688 145.8228 216.79688 145.10405Q217.5625 144.36967 218.82812 144.36967Q220.03125 144.36967 220.71875 144.99467Q221.40625 145.61967 221.40625 146.66655Q221.40625 147.91655 219.79688 149.66655L217.51562 152.1353L221.79688 152.1353L221.79688 153.02592Z" fill-rule="nonzero"/><path stroke="#ea4335" stroke-width="3.0" stroke-linejoin="round" stroke-linecap="round" d="M344.28125 207.44662L345.46875 207.44662L345.46875 208.32162L344.28125 208.32162L344.28125 210.306L343.20312 210.306L343.20312 208.32162L339.3125 208.32162L339.3125 207.681L343.125 201.77475L344.28125 201.77475L344.28125 207.44662ZM340.54688 207.44662L343.20312 207.44662L343.20312 203.25912L343.0625 203.4935L340.54688 207.44662ZM352.29688 210.306L346.70312 210.306L346.70312 209.52475L349.65625 206.2435Q350.3125 205.4935 350.5625 205.04037Q350.8125 204.57162 350.8125 204.07162Q350.8125 203.39975 350.40625 202.97787Q350.01562 202.54037 349.32812 202.54037Q348.53125 202.54037 348.07812 203.00912Q347.625 203.46225 347.625 204.29037L346.54688 204.29037Q346.54688 203.10287 347.29688 202.38412Q348.0625 201.64975 349.32812 201.64975Q350.53125 201.64975 351.21875 202.27475Q351.90625 202.89975 351.90625 203.94662Q351.90625 205.19662 350.29688 206.94662L348.01562 209.41537L352.29688 209.41537L352.29688 210.306ZM353.84375 209.7435Q353.84375 209.46225 354.0 209.27475Q354.17188 209.08725 354.5 209.08725Q354.84375 209.08725 355.01562 209.27475Q355.1875 209.46225 355.1875 209.7435Q355.1875 210.00912 355.01562 210.19662Q354.84375 210.3685 354.5 210.3685Q354.17188 210.3685 354.0 210.19662Q353.84375 210.00912 353.84375 209.7435ZM362.29688 210.306L356.70312 210.306L356.70312 209.52475L359.65625 206.2435Q360.3125 205.4935 360.5625 205.04037Q360.8125 204.57162 360.8125 204.07162Q360.8125 203.39975 360.40625 202.97787Q360.01562 202.54037 359.32812 202.54037Q358.53125 202.54037 358.07812 203.00912Q357.625 203.46225 357.625 204.29037L356.54688 204.29037Q356.54688 203.10287 357.29688 202.38412Q358.0625 201.64975 359.32812 201.64975Q360.53125 201.64975 361.21875 202.27475Q361.90625 202.89975 361.90625 203.94662Q361.90625 205.19662 360.29688 206.94662L358.01562 209.41537L362.29688 209.41537L362.29688 210.306ZM368.28125 207.44662L369.46875 207.44662L369.46875 208.32162L368.28125 208.32162L368.28125 210.306L367.20312 210.306L367.20312 208.32162L363.3125 208.32162L363.3125 207.681L367.125 201.77475L368.28125 201.77475L368.28125 207.44662ZM364.54688 207.44662L367.20312 207.44662L367.20312 203.25912L367.0625 203.4935L364.54688 207.44662Z" fill-rule="nonzero"/><path fill="#ffffff" d="M344.28125 207.44662L345.46875 207.44662L345.46875 208.32162L344.28125 208.32162L344.28125 210.306L343.20312 210.306L343.20312 208.32162L339.3125 208.32162L339.3125 207.681L343.125 201.77475L344.28125 201.77475L344.28125 207.44662ZM340.54688 207.44662L343.20312 207.44662L343.20312 203.25912L343.0625 203.4935L340.54688 207.44662ZM352.29688 210.306L346.70312 210.306L346.70312 209.52475L349.65625 206.2435Q350.3125 205.4935 350.5625 205.04037Q350.8125 204.57162 350.8125 204.07162Q350.8125 203.39975 350.40625 202.97787Q350.01562 202.54037 349.32812 202.54037Q348.53125 202.54037 348.07812 203.00912Q347.625 203.46225 347.625 204.29037L346.54688 204.29037Q346.54688 203.10287 347.29688 202.38412Q348.0625 201.64975 349.32812 201.64975Q350.53125 201.64975 351.21875 202.27475Q351.90625 202.89975 351.90625 203.94662Q351.90625 205.19662 350.29688 206.94662L348.01562 209.41537L352.29688 209.41537L352.29688 210.306ZM353.84375 209.7435Q353.84375 209.46225 354.0 209.27475Q354.17188 209.08725 354.5 209.08725Q354.84375 209.08725 355.01562 209.27475Q355.1875 209.46225 355.1875 209.7435Q355.1875 210.00912 355.01562 210.19662Q354.84375 210.3685 354.5 210.3685Q354.17188 210.3685 354.0 210.19662Q353.84375 210.00912 353.84375 209.7435ZM362.29688 210.306L356.70312 210.306L356.70312 209.52475L359.65625 206.2435Q360.3125 205.4935 360.5625 205.04037Q360.8125 204.57162 360.8125 204.07162Q360.8125 203.39975 360.40625 202.97787Q360.01562 202.54037 359.32812 202.54037Q358.53125 202.54037 358.07812 203.00912Q357.625 203.46225 357.625 204.29037L356.54688 204.29037Q356.54688 203.10287 357.29688 202.38412Q358.0625 201.64975 359.32812 201.64975Q360.53125 201.64975 361.21875 202.27475Q361.90625 202.89975 361.90625 203.94662Q361.90625 205.19662 360.29688 206.94662L358.01562 209.41537L362.29688 209.41537L362.29688 210.306ZM368.28125 207.44662L369.46875 207.44662L369.46875 208.32162L368.28125 208.32162L368.28125 210.306L367.20312 210.306L367.20312 208.32162L363.3125 208.32162L363.3125 207.681L367.125 201.77475L368.28125 201.77475L368.28125 207.44662ZM364.54688 207.44662L367.20312 207.44662L367.20312 203.25912L367.0625 203.4935L364.54688 207.44662Z" fill-rule="nonzero"/><path stroke="#ea4335" stroke-width="3.0" stroke-linejoin="round" stroke-linecap="round" d="M489.76562 275.23306L488.6875 275.23306L488.6875 268.0143L486.5 268.8112L486.5 267.8268L489.60938 266.65494L489.76562 266.65494L489.76562 275.23306ZM497.35938 271.48306Q497.03125 271.8893 496.54688 272.1393Q496.07812 272.3737 495.51562 272.3737Q494.78125 272.3737 494.23438 272.0143Q493.6875 271.65494 493.39062 270.9987Q493.09375 270.3268 493.09375 269.52994Q493.09375 268.6862 493.40625 267.9987Q493.73438 267.3112 494.32812 266.9518Q494.9375 266.5768 495.73438 266.5768Q497.0 266.5768 497.71875 267.52994Q498.45312 268.48306 498.45312 270.10806L498.45312 270.42056Q498.45312 272.92056 497.46875 274.0612Q496.48438 275.2018 494.5 275.23306L494.28125 275.23306L494.28125 274.3268L494.51562 274.3268Q495.85938 274.29556 496.57812 273.6237Q497.29688 272.9518 497.35938 271.48306ZM495.6875 271.48306Q496.23438 271.48306 496.6875 271.15494Q497.15625 270.8112 497.375 270.3268L497.375 269.8893Q497.375 268.8268 496.90625 268.15494Q496.4375 267.48306 495.73438 267.48306Q495.01562 267.48306 494.57812 268.02994Q494.15625 268.5768 494.15625 269.48306Q494.15625 270.35806 494.5625 270.92056Q494.98438 271.48306 495.6875 271.48306ZM500.34375 274.67056Q500.34375 274.3893 500.5 274.2018Q500.67188 274.0143 501.0 274.0143Q501.34375 274.0143 501.51562 274.2018Q501.6875 274.3893 501.6875 274.67056Q501.6875 274.9362 501.51562 275.1237Q501.34375 275.29556 501.0 275.29556Q500.67188 275.29556 500.5 275.1237Q500.34375 274.9362 500.34375 274.67056ZM504.78125 270.4362L505.59375 270.4362Q506.375 270.42056 506.8125 270.02994Q507.25 269.6393 507.25 268.96744Q507.25 267.46744 505.75 267.46744Q505.04688 267.46744 504.625 267.8737Q504.21875 268.27994 504.21875 268.9362L503.125 268.9362Q503.125 267.92056 503.85938 267.2487Q504.60938 266.5768 505.75 266.5768Q506.95312 266.5768 507.64062 267.21744Q508.32812 267.85806 508.32812 268.9987Q508.32812 269.5612 507.96875 270.0768Q507.60938 270.59244 506.98438 270.85806Q507.6875 271.0768 508.0625 271.59244Q508.45312 272.10806 508.45312 272.85806Q508.45312 273.9987 507.70312 274.6862Q506.95312 275.35806 505.75 275.35806Q504.5625 275.35806 503.79688 274.7018Q503.04688 274.04556 503.04688 272.98306L504.14062 272.98306Q504.14062 273.65494 504.57812 274.0612Q505.01562 274.46744 505.76562 274.46744Q506.54688 274.46744 506.95312 274.0612Q507.375 273.6393 507.375 272.8737Q507.375 272.1393 506.92188 271.7487Q506.46875 271.34244 505.59375 271.3268L504.78125 271.3268L504.78125 270.4362ZM515.71875 267.3112L512.1875 275.23306L511.04688 275.23306L514.5625 267.59244L509.95312 267.59244L509.95312 266.7018L515.71875 266.7018L515.71875 267.3112ZM517.7031 270.9518L518.1406 266.7018L522.5156 266.7018L522.5156 267.7018L519.0625 267.7018L518.7969 270.02994Q519.4375 269.65494 520.2344 269.65494Q521.3906 269.65494 522.0781 270.4362Q522.7656 271.2018 522.7656 272.5143Q522.7656 273.8268 522.0469 274.59244Q521.34375 275.35806 520.0625 275.35806Q518.9375 275.35806 518.21875 274.73306Q517.5 274.09244 517.40625 272.98306L518.4219 272.98306Q518.53125 273.71744 518.9531 274.09244Q519.375 274.46744 520.0625 274.46744Q520.8125 274.46744 521.25 273.9518Q521.6875 273.4362 521.6875 272.52994Q521.6875 271.67056 521.21875 271.15494Q520.75 270.6393 519.96875 270.6393Q519.2656 270.6393 518.8594 270.9362L518.5781 271.17056L517.7031 270.9518Z" fill-rule="nonzero"/><path fill="#ffffff" d="M489.76562 275.23306L488.6875 275.23306L488.6875 268.0143L486.5 268.8112L486.5 267.8268L489.60938 266.65494L489.76562 266.65494L489.76562 275.23306ZM497.35938 271.48306Q497.03125 271.8893 496.54688 272.1393Q496.07812 272.3737 495.51562 272.3737Q494.78125 272.3737 494.23438 272.0143Q493.6875 271.65494 493.39062 270.9987Q493.09375 270.3268 493.09375 269.52994Q493.09375 268.6862 493.40625 267.9987Q493.73438 267.3112 494.32812 266.9518Q494.9375 266.5768 495.73438 266.5768Q497.0 266.5768 497.71875 267.52994Q498.45312 268.48306 498.45312 270.10806L498.45312 270.42056Q498.45312 272.92056 497.46875 274.0612Q496.48438 275.2018 494.5 275.23306L494.28125 275.23306L494.28125 274.3268L494.51562 274.3268Q495.85938 274.29556 496.57812 273.6237Q497.29688 272.9518 497.35938 271.48306ZM495.6875 271.48306Q496.23438 271.48306 496.6875 271.15494Q497.15625 270.8112 497.375 270.3268L497.375 269.8893Q497.375 268.8268 496.90625 268.15494Q496.4375 267.48306 495.73438 267.48306Q495.01562 267.48306 494.57812 268.02994Q494.15625 268.5768 494.15625 269.48306Q494.15625 270.35806 494.5625 270.92056Q494.98438 271.48306 495.6875 271.48306ZM500.34375 274.67056Q500.34375 274.3893 500.5 274.2018Q500.67188 274.0143 501.0 274.0143Q501.34375 274.0143 501.51562 274.2018Q501.6875 274.3893 501.6875 274.67056Q501.6875 274.9362 501.51562 275.1237Q501.34375 275.29556 501.0 275.29556Q500.67188 275.29556 500.5 275.1237Q500.34375 274.9362 500.34375 274.67056ZM504.78125 270.4362L505.59375 270.4362Q506.375 270.42056 506.8125 270.02994Q507.25 269.6393 507.25 268.96744Q507.25 267.46744 505.75 267.46744Q505.04688 267.46744 504.625 267.8737Q504.21875 268.27994 504.21875 268.9362L503.125 268.9362Q503.125 267.92056 503.85938 267.2487Q504.60938 266.5768 505.75 266.5768Q506.95312 266.5768 507.64062 267.21744Q508.32812 267.85806 508.32812 268.9987Q508.32812 269.5612 507.96875 270.0768Q507.60938 270.59244 506.98438 270.85806Q507.6875 271.0768 508.0625 271.59244Q508.45312 272.10806 508.45312 272.85806Q508.45312 273.9987 507.70312 274.6862Q506.95312 275.35806 505.75 275.35806Q504.5625 275.35806 503.79688 274.7018Q503.04688 274.04556 503.04688 272.98306L504.14062 272.98306Q504.14062 273.65494 504.57812 274.0612Q505.01562 274.46744 505.76562 274.46744Q506.54688 274.46744 506.95312 274.0612Q507.375 273.6393 507.375 272.8737Q507.375 272.1393 506.92188 271.7487Q506.46875 271.34244 505.59375 271.3268L504.78125 271.3268L504.78125 270.4362ZM515.71875 267.3112L512.1875 275.23306L511.04688 275.23306L514.5625 267.59244L509.95312 267.59244L509.95312 266.7018L515.71875 266.7018L515.71875 267.3112ZM517.7031 270.9518L518.1406 266.7018L522.5156 266.7018L522.5156 267.7018L519.0625 267.7018L518.7969 270.02994Q519.4375 269.65494 520.2344 269.65494Q521.3906 269.65494 522.0781 270.4362Q522.7656 271.2018 522.7656 272.5143Q522.7656 273.8268 522.0469 274.59244Q521.34375 275.35806 520.0625 275.35806Q518.9375 275.35806 518.21875 274.73306Q517.5 274.09244 517.40625 272.98306L518.4219 272.98306Q518.53125 273.71744 518.9531 274.09244Q519.375 274.46744 520.0625 274.46744Q520.8125 274.46744 521.25 273.9518Q521.6875 273.4362 521.6875 272.52994Q521.6875 271.67056 521.21875 271.15494Q520.75 270.6393 519.96875 270.6393Q519.2656 270.6393 518.8594 270.9362L518.5781 271.17056L517.7031 270.9518Z" fill-rule="nonzero"/><path fill="#000000" d="M78.28438 343.23126L79.8 343.23126L79.8 344.075Q80.62813 343.09064 81.75313 343.09064Q82.34688 343.09064 82.78438 343.34064Q83.22188 343.575 83.50313 344.075Q83.90938 343.575 84.37813 343.34064Q84.8625 343.09064 85.40938 343.09064Q86.08125 343.09064 86.55 343.3719Q87.03438 343.6375 87.26875 344.1844Q87.44063 344.575 87.44063 345.46564L87.44063 349.45L85.8 349.45L85.8 345.8875Q85.8 344.96564 85.62813 344.7Q85.39375 344.34064 84.925 344.34064Q84.58125 344.34064 84.26875 344.5594Q83.97188 344.7625 83.83125 345.16876Q83.69063 345.575 83.69063 346.46564L83.69063 349.45L82.05 349.45L82.05 346.04376Q82.05 345.1375 81.95625 344.8719Q81.87813 344.60626 81.69063 344.48126Q81.50313 344.34064 81.19063 344.34064Q80.81563 344.34064 80.50313 344.5594Q80.20625 344.7625 80.06563 345.15314Q79.94063 345.52814 79.94063 346.41876L79.94063 349.45L78.28438 349.45L78.28438 343.23126ZM93.01875 347.46564L94.65938 347.7469Q94.34688 348.65314 93.65938 349.1219Q92.97188 349.59064 91.95625 349.59064Q90.33125 349.59064 89.55 348.52814Q88.925 347.6844 88.925 346.3875Q88.925 344.84064 89.7375 343.96564Q90.55 343.09064 91.78438 343.09064Q93.175 343.09064 93.97188 344.0125Q94.78438 344.91876 94.7375 346.8094L90.6125 346.8094Q90.64375 347.54376 91.01875 347.95Q91.39375 348.35626 91.97188 348.35626Q92.34688 348.35626 92.6125 348.15314Q92.87813 347.9344 93.01875 347.46564ZM93.1125 345.8094Q93.09688 345.09064 92.7375 344.71564Q92.39375 344.34064 91.87813 344.34064Q91.34688 344.34064 90.9875 344.73126Q90.64375 345.1375 90.64375 345.8094L93.1125 345.8094ZM99.26875 343.23126L99.26875 344.54376L98.14375 344.54376L98.14375 347.04376Q98.14375 347.8094 98.175 347.9344Q98.20625 348.0594 98.31563 348.15314Q98.44063 348.23126 98.59688 348.23126Q98.83125 348.23126 99.25313 348.0594L99.39375 349.34064Q98.83125 349.59064 98.09688 349.59064Q97.65938 349.59064 97.3 349.45Q96.94063 349.29376 96.76875 349.0594Q96.6125 348.8094 96.53438 348.41876Q96.4875 348.1219 96.4875 347.2469L96.4875 344.54376L95.7375 344.54376L95.7375 343.23126L96.4875 343.23126L96.4875 341.9969L98.14375 341.02814L98.14375 343.23126L99.26875 343.23126ZM102.05 340.85626L102.05 344.0125Q102.84688 343.09064 103.95625 343.09064Q104.51875 343.09064 104.97188 343.3094Q105.44063 343.5125 105.675 343.84064Q105.90938 344.16876 105.9875 344.575Q106.06563 344.96564 106.06563 345.79376L106.06563 349.45L104.425 349.45L104.425 346.16876Q104.425 345.1844 104.33125 344.91876Q104.2375 344.65314 104.00313 344.4969Q103.76875 344.34064 103.40938 344.34064Q103.00313 344.34064 102.675 344.54376Q102.34688 344.7469 102.19063 345.15314Q102.05 345.54376 102.05 346.325L102.05 349.45L100.40938 349.45L100.40938 340.85626L102.05 340.85626ZM107.03438 346.2469Q107.03438 345.4344 107.44063 344.66876Q107.84688 343.8875 108.58125 343.4969Q109.31563 343.09064 110.2375 343.09064Q111.64375 343.09064 112.55 344.0125Q113.45625 344.91876 113.45625 346.325Q113.45625 347.73126 112.53438 348.66876Q111.62813 349.59064 110.25313 349.59064Q109.39375 349.59064 108.6125 349.2Q107.84688 348.8094 107.44063 348.075Q107.03438 347.325 107.03438 346.2469ZM108.72188 346.34064Q108.72188 347.2625 109.15938 347.7625Q109.59688 348.2469 110.2375 348.2469Q110.89375 348.2469 111.31563 347.7625Q111.75313 347.2625 111.75313 346.325Q111.75313 345.41876 111.31563 344.9344Q110.89375 344.4344 110.2375 344.4344Q109.59688 344.4344 109.15938 344.9344Q108.72188 345.41876 108.72188 346.34064ZM120.1125 349.45L118.59688 349.45L118.59688 348.52814Q118.20625 349.075 117.69063 349.34064Q117.175 349.59064 116.64375 349.59064Q115.56563 349.59064 114.8 348.73126Q114.05 347.85626 114.05 346.3094Q114.05 344.73126 114.78438 343.91876Q115.53438 343.09064 116.675 343.09064Q117.70625 343.09064 118.47188 343.95L118.47188 340.85626L120.1125 340.85626L120.1125 349.45ZM115.72188 346.2Q115.72188 347.2 116.00313 347.6375Q116.39375 348.29376 117.1125 348.29376Q117.675 348.29376 118.06563 347.8094Q118.47188 347.325 118.47188 346.35626Q118.47188 345.29376 118.08125 344.825Q117.70625 344.34064 117.09688 344.34064Q116.51875 344.34064 116.1125 344.8094Q115.72188 345.27814 115.72188 346.2Z" fill-rule="nonzero"/><path fill="#000000" d="M23.331263 231.6323L23.331263 230.11667L24.175013 230.11667Q23.190638 229.28854 23.190638 228.16354Q23.190638 227.5698 23.440638 227.1323Q23.675013 226.6948 24.175013 226.41354Q23.675013 226.0073 23.440638 225.53854Q23.190638 225.05417 23.190638 224.5073Q23.190638 223.83542 23.471888 223.36667Q23.737513 222.8823 24.284388 222.64792Q24.675013 222.47604 25.565638 222.47604L29.550013 222.47604L29.550013 224.11667L25.987513 224.11667Q25.065638 224.11667 24.800013 224.28854Q24.440638 224.52292 24.440638 224.99167Q24.440638 225.33542 24.659388 225.64792Q24.862513 225.9448 25.268763 226.08542Q25.675013 226.22604 26.565638 226.22604L29.550013 226.22604L29.550013 227.86667L26.143763 227.86667Q25.237513 227.86667 24.971888 227.96042Q24.706263 228.03854 24.581263 228.22604Q24.440638 228.41354 24.440638 228.72604Q24.440638 229.10104 24.659388 229.41354Q24.862513 229.71042 25.253138 229.85104Q25.628138 229.97604 26.518763 229.97604L29.550013 229.97604L29.550013 231.6323L23.331263 231.6323ZM22.487513 220.5073L20.956263 220.5073L20.956263 218.85104L22.487513 218.85104L22.487513 220.5073ZM29.550013 220.5073L23.331263 220.5073L23.331263 218.85104L29.550013 218.85104L29.550013 220.5073ZM29.550013 217.5073L20.956263 217.5073L20.956263 215.85104L29.550013 215.85104L29.550013 217.5073ZM29.550013 214.5073L20.956263 214.5073L20.956263 212.85104L29.550013 212.85104L29.550013 214.5073ZM22.487513 211.5073L20.956263 211.5073L20.956263 209.85104L22.487513 209.85104L22.487513 211.5073ZM29.550013 211.5073L23.331263 211.5073L23.331263 209.85104L29.550013 209.85104L29.550013 211.5073ZM27.768763 209.08542L27.518763 207.42917Q28.003138 207.3198 28.253138 207.0073Q28.503138 206.67917 28.503138 206.10104Q28.503138 205.46042 28.268763 205.14792Q28.096888 204.92917 27.831263 204.92917Q27.643763 204.92917 27.518763 205.03854Q27.393763 205.16354 27.300013 205.58542Q26.862513 207.58542 26.503138 208.11667Q25.987513 208.85104 25.096888 208.85104Q24.284388 208.85104 23.737513 208.22604Q23.190638 207.58542 23.190638 206.24167Q23.190638 204.96042 23.612513 204.33542Q24.018763 203.71042 24.831263 203.47604L25.112513 205.03854Q24.753138 205.1323 24.565638 205.41354Q24.362513 205.6948 24.362513 206.21042Q24.362513 206.85104 24.550013 207.1323Q24.675013 207.3198 24.878138 207.3198Q25.065638 207.3198 25.190638 207.16354Q25.346888 206.9448 25.643763 205.6323Q25.940638 204.30417 26.378138 203.78854Q26.815638 203.27292 27.596888 203.27292Q28.456263 203.27292 29.081263 203.99167Q29.690638 204.6948 29.690638 206.10104Q29.690638 207.36667 29.175013 208.11667Q28.659388 208.85104 27.768763 209.08542ZM27.565638 197.89792L27.846888 196.2573Q28.753138 196.5698 29.221888 197.2573Q29.690638 197.9448 29.690638 198.96042Q29.690638 200.58542 28.628138 201.36667Q27.784388 201.99167 26.487513 201.99167Q24.940638 201.99167 24.065638 201.17917Q23.190638 200.36667 23.190638 199.1323Q23.190638 197.74167 24.112513 196.9448Q25.018763 196.1323 26.909388 196.17917L26.909388 200.30417Q27.643763 200.27292 28.050013 199.89792Q28.456263 199.52292 28.456263 198.9448Q28.456263 198.5698 28.253138 198.30417Q28.034388 198.03854 27.565638 197.89792ZM25.909388 197.80417Q25.190638 197.8198 24.815638 198.17917Q24.440638 198.52292 24.440638 199.03854Q24.440638 199.5698 24.831263 199.92917Q25.237513 200.27292 25.909388 200.27292L25.909388 197.80417ZM25.159388 189.08542L25.456263 190.6948Q24.971888 190.78854 24.737513 191.08542Q24.487513 191.36667 24.487513 191.8198Q24.487513 192.4448 24.909388 192.8198Q25.331263 193.17917 26.331263 193.17917Q27.440638 193.17917 27.893763 192.80417Q28.346888 192.42917 28.346888 191.80417Q28.346888 191.33542 28.081263 191.03854Q27.815638 190.74167 27.159388 190.61667L27.440638 188.99167Q28.550013 189.24167 29.128138 189.96042Q29.690638 190.67917 29.690638 191.8823Q29.690638 193.24167 28.831263 194.05417Q27.971888 194.86667 26.440638 194.86667Q24.909388 194.86667 24.050013 194.05417Q23.190638 193.24167 23.190638 191.85104Q23.190638 190.71042 23.675013 190.03854Q24.159388 189.36667 25.159388 189.08542ZM26.346888 187.8823Q25.534388 187.8823 24.768763 187.47604Q23.987513 187.0698 23.596888 186.33542Q23.190638 185.60104 23.190638 184.67917Q23.190638 183.27292 24.112513 182.36667Q25.018763 181.46042 26.425013 181.46042Q27.831263 181.46042 28.768763 182.3823Q29.690638 183.28854 29.690638 184.66354Q29.690638 185.52292 29.300013 186.30417Q28.909388 187.0698 28.175013 187.47604Q27.425013 187.8823 26.346888 187.8823ZM26.440638 186.1948Q27.362513 186.1948 27.862513 185.7573Q28.346888 185.3198 28.346888 184.67917Q28.346888 184.02292 27.862513 183.60104Q27.362513 183.16354 26.425013 183.16354Q25.518763 183.16354 25.034388 183.60104Q24.534388 184.02292 24.534388 184.67917Q24.534388 185.3198 25.034388 185.7573Q25.518763 186.1948 26.440638 186.1948ZM29.550013 174.85104L29.550013 176.49167L26.378138 176.49167Q25.362513 176.49167 25.065638 176.60104Q24.768763 176.6948 24.612513 176.9448Q24.440638 177.17917 24.440638 177.5073Q24.440638 177.9448 24.675013 178.28854Q24.909388 178.61667 25.300013 178.74167Q25.690638 178.86667 26.737513 178.86667L29.550013 178.86667L29.550013 180.52292L23.331263 180.52292L23.331263 178.99167L24.237513 178.99167Q23.190638 178.17917 23.190638 176.92917Q23.190638 176.39792 23.393763 175.9448Q23.581263 175.49167 23.893763 175.2573Q24.190638 175.02292 24.581263 174.9448Q24.956263 174.85104 25.675013 174.85104L29.550013 174.85104ZM29.550013 167.80417L29.550013 169.3198L28.628138 169.3198Q29.175013 169.71042 29.440638 170.22604Q29.690638 170.74167 29.690638 171.27292Q29.690638 172.35104 28.831263 173.11667Q27.956263 173.86667 26.409388 173.86667Q24.831263 173.86667 24.018763 173.1323Q23.190638 172.3823 23.190638 171.24167Q23.190638 170.21042 24.050013 169.4448L20.956263 169.4448L20.956263 167.80417L29.550013 167.80417ZM26.300013 172.1948Q27.300013 172.1948 27.737513 171.91354Q28.393763 171.52292 28.393763 170.80417Q28.393763 170.24167 27.909388 169.85104Q27.425013 169.4448 26.456263 169.4448Q25.393763 169.4448 24.925013 169.83542Q24.440638 170.21042 24.440638 170.8198Q24.440638 171.39792 24.909388 171.80417Q25.378138 172.1948 26.300013 172.1948Z" fill-rule="nonzero"/><path fill="#000000" d="M65.05 313.21564Q65.05 311.6844 65.3625 310.7625Q65.675 309.825 66.28438 309.325Q66.90938 308.825 67.84688 308.825Q68.53438 308.825 69.05 309.10626Q69.58125 309.3875 69.925 309.91876Q70.26875 310.4344 70.45625 311.1844Q70.64375 311.9344 70.64375 313.21564Q70.64375 314.73126 70.33125 315.65314Q70.03438 316.575 69.40938 317.09064Q68.8 317.59064 67.84688 317.59064Q66.6125 317.59064 65.89375 316.7Q65.05 315.6375 65.05 313.21564ZM66.12813 313.21564Q66.12813 315.325 66.62813 316.02814Q67.12813 316.73126 67.84688 316.73126Q68.58125 316.73126 69.06563 316.02814Q69.56563 315.325 69.56563 313.21564Q69.56563 311.09064 69.06563 310.40314Q68.58125 309.7 67.83125 309.7Q67.1125 309.7 66.675 310.3094Q66.12813 311.09064 66.12813 313.21564Z" fill-rule="nonzero"/><path fill="#000000" d="M63.596874 259.6427L63.596874 260.65833L57.909374 260.65833Q57.909374 260.28333 58.034374 259.92395Q58.253124 259.34583 58.721874 258.78333Q59.20625 258.22083 60.1125 257.48645Q61.51875 256.3302 62.003124 255.65833Q62.503124 254.98645 62.503124 254.3927Q62.503124 253.7677 62.05 253.34583Q61.596874 252.90833 60.878124 252.90833Q60.1125 252.90833 59.659374 253.36145Q59.20625 253.81458 59.190624 254.62708L58.1125 254.5177Q58.221874 253.29895 58.940624 252.67395Q59.675 252.03333 60.909374 252.03333Q62.14375 252.03333 62.8625 252.72083Q63.58125 253.40833 63.58125 254.42395Q63.58125 254.93958 63.3625 255.43958Q63.159374 255.92395 62.659374 256.48645Q62.175 257.03333 61.05 257.98645Q60.096874 258.78333 59.815624 259.0802Q59.55 259.36145 59.378124 259.6427L63.596874 259.6427ZM65.05 256.42395Q65.05 254.8927 65.3625 253.97083Q65.675 253.03333 66.28438 252.53333Q66.90938 252.03333 67.84688 252.03333Q68.53438 252.03333 69.05 252.31458Q69.58125 252.59583 69.925 253.12708Q70.26875 253.6427 70.45625 254.3927Q70.64375 255.1427 70.64375 256.42395Q70.64375 257.93958 70.33125 258.86145Q70.03438 259.78333 69.40938 260.29895Q68.8 260.79895 67.84688 260.79895Q66.6125 260.79895 65.89375 259.90833Q65.05 258.84583 65.05 256.42395ZM66.12813 256.42395Q66.12813 258.53333 66.62813 259.23645Q67.12813 259.93958 67.84688 259.93958Q68.58125 259.93958 69.06563 259.23645Q69.56563 258.53333 69.56563 256.42395Q69.56563 254.29895 69.06563 253.61145Q68.58125 252.90833 67.83125 252.90833Q67.1125 252.90833 66.675 253.5177Q66.12813 254.29895 66.12813 256.42395Z" fill-rule="nonzero"/><path fill="#000000" d="M61.425 203.86667L61.425 201.80417L57.70625 201.80417L57.70625 200.83542L61.628124 195.27292L62.4875 195.27292L62.4875 200.83542L63.64375 200.83542L63.64375 201.80417L62.4875 201.80417L62.4875 203.86667L61.425 203.86667ZM61.425 200.83542L61.425 196.97604L58.7375 200.83542L61.425 200.83542ZM65.05 199.6323Q65.05 198.10104 65.3625 197.17917Q65.675 196.24167 66.28438 195.74167Q66.90938 195.24167 67.84688 195.24167Q68.53438 195.24167 69.05 195.52292Q69.58125 195.80417 69.925 196.33542Q70.26875 196.85104 70.45625 197.60104Q70.64375 198.35104 70.64375 199.6323Q70.64375 201.14792 70.33125 202.0698Q70.03438 202.99167 69.40938 203.5073Q68.8 204.0073 67.84688 204.0073Q66.6125 204.0073 65.89375 203.11667Q65.05 202.05417 65.05 199.6323ZM66.12813 199.6323Q66.12813 201.74167 66.62813 202.4448Q67.12813 203.14792 67.84688 203.14792Q68.58125 203.14792 69.06563 202.4448Q69.56563 201.74167 69.56563 199.6323Q69.56563 197.5073 69.06563 196.8198Q68.58125 196.11667 67.83125 196.11667Q67.1125 196.11667 66.675 196.72604Q66.12813 197.5073 66.12813 199.6323Z" fill-rule="nonzero"/><path fill="#000000" d="M63.51875 140.59062L62.471874 140.66875Q62.33125 140.04375 62.08125 139.7625Q61.64375 139.30937 61.01875 139.30937Q60.51875 139.30937 60.128124 139.59062Q59.64375 139.96562 59.346874 140.66875Q59.065624 141.35625 59.05 142.6375Q59.425 142.05937 59.971874 141.77812Q60.534374 141.49687 61.14375 141.49687Q62.190624 141.49687 62.925 142.27812Q63.675 143.05937 63.675 144.27812Q63.675 145.09062 63.315624 145.79375Q62.971874 146.48125 62.3625 146.85625Q61.753124 147.21562 60.9875 147.21562Q59.659374 147.21562 58.83125 146.24687Q58.003124 145.27812 58.003124 143.05937Q58.003124 140.55937 58.925 139.43437Q59.721874 138.45 61.08125 138.45Q62.096874 138.45 62.7375 139.02812Q63.39375 139.59062 63.51875 140.59062ZM59.221874 144.29375Q59.221874 144.84062 59.440624 145.34062Q59.675 145.825 60.08125 146.09062Q60.503124 146.35625 60.971874 146.35625Q61.628124 146.35625 62.1125 145.825Q62.596874 145.27812 62.596874 144.35625Q62.596874 143.46562 62.1125 142.95Q61.64375 142.43437 60.925 142.43437Q60.20625 142.43437 59.70625 142.95Q59.221874 143.46562 59.221874 144.29375ZM65.05 142.84062Q65.05 141.30937 65.3625 140.3875Q65.675 139.45 66.28438 138.95Q66.90938 138.45 67.84688 138.45Q68.53438 138.45 69.05 138.73125Q69.58125 139.0125 69.925 139.54375Q70.26875 140.05937 70.45625 140.80937Q70.64375 141.55937 70.64375 142.84062Q70.64375 144.35625 70.33125 145.27812Q70.03438 146.2 69.40938 146.71562Q68.8 147.21562 67.84688 147.21562Q66.6125 147.21562 65.89375 146.325Q65.05 145.2625 65.05 142.84062ZM66.12813 142.84062Q66.12813 144.95 66.62813 145.65312Q67.12813 146.35625 67.84688 146.35625Q68.58125 146.35625 69.06563 145.65312Q69.56563 144.95 69.56563 142.84062Q69.56563 140.71562 69.06563 140.02812Q68.58125 139.325 67.83125 139.325Q67.1125 139.325 66.675 139.93437Q66.12813 140.71562 66.12813 142.84062Z" fill-rule="nonzero"/><path fill="#000000" d="M59.675 85.62708Q59.01875 85.37708 58.690624 84.93958Q58.378124 84.48646 58.378124 83.87708Q58.378124 82.93958 59.05 82.29896Q59.7375 81.65833 60.846874 81.65833Q61.971874 81.65833 62.659374 82.31458Q63.346874 82.97083 63.346874 83.90833Q63.346874 84.50208 63.034374 84.93958Q62.721874 85.37708 62.08125 85.62708Q62.878124 85.87708 63.284374 86.45521Q63.690624 87.03333 63.690624 87.83021Q63.690624 88.92396 62.909374 89.67396Q62.14375 90.42396 60.8625 90.42396Q59.596874 90.42396 58.815624 89.67396Q58.034374 88.92396 58.034374 87.79896Q58.034374 86.95521 58.45625 86.39271Q58.89375 85.83021 59.675 85.62708ZM59.45625 83.83021Q59.45625 84.43958 59.846874 84.83021Q60.253124 85.22083 60.878124 85.22083Q61.4875 85.22083 61.878124 84.84583Q62.26875 84.45521 62.26875 83.89271Q62.26875 83.31458 61.8625 82.92396Q61.45625 82.51771 60.8625 82.51771Q60.253124 82.51771 59.846874 82.90833Q59.45625 83.29896 59.45625 83.83021ZM59.128124 87.79896Q59.128124 88.25208 59.33125 88.67396Q59.55 89.09583 59.971874 89.33021Q60.39375 89.56458 60.878124 89.56458Q61.628124 89.56458 62.1125 89.08021Q62.6125 88.59583 62.6125 87.84583Q62.6125 87.08021 62.1125 86.58021Q61.6125 86.08021 60.846874 86.08021Q60.096874 86.08021 59.6125 86.58021Q59.128124 87.06458 59.128124 87.79896ZM65.05 86.04896Q65.05 84.51771 65.3625 83.59583Q65.675 82.65833 66.28438 82.15833Q66.90938 81.65833 67.84688 81.65833Q68.53438 81.65833 69.05 81.93958Q69.58125 82.22083 69.925 82.75208Q70.26875 83.26771 70.45625 84.01771Q70.64375 84.76771 70.64375 86.04896Q70.64375 87.56458 70.33125 88.48646Q70.03438 89.40833 69.40938 89.92396Q68.8 90.42396 67.84688 90.42396Q66.6125 90.42396 65.89375 89.53333Q65.05 88.47083 65.05 86.04896ZM66.12813 86.04896Q66.12813 88.15833 66.62813 88.86146Q67.12813 89.56458 67.84688 89.56458Q68.58125 89.56458 69.06563 88.86146Q69.56563 88.15833 69.56563 86.04896Q69.56563 83.92396 69.06563 83.23646Q68.58125 82.53333 67.83125 82.53333Q67.1125 82.53333 66.675 83.14271Q66.12813 83.92396 66.12813 86.04896Z" fill-rule="nonzero"/><path fill="#4285f4" d="M509.0 26.55C509.0 25.997715 509.44772 25.55 510.0 25.55L520.0 25.55C520.5523 25.55 521.0 25.997715 521.0 26.55L521.0 36.55C521.0 37.102283 520.5523 37.55 520.0 37.55L510.0 37.55C509.44772 37.55 509.0 37.102283 509.0 36.55Z" fill-rule="nonzero"/><path fill="#ea4335" d="M537.0 26.55C537.0 25.997715 537.4477 25.55 538.0 25.55L548.0 25.55C548.5523 25.55 549.0 25.997715 549.0 26.55L549.0 36.55C549.0 37.102283 548.5523 37.55 548.0 37.55L538.0 37.55C537.4477 37.55 537.0 37.102283 537.0 36.55Z" fill-rule="nonzero"/><path fill="#757575" d="M12.003125 42.55L12.003125 28.2375L16.64375 28.2375Q19.284374 28.2375 20.08125 28.440624Q21.315624 28.76875 22.14375 29.846874Q22.971874 30.925 22.971874 32.64375Q22.971874 33.95625 22.4875 34.8625Q22.01875 35.753124 21.26875 36.26875Q20.534374 36.784374 19.784374 36.940624Q18.7375 37.14375 16.784374 37.14375L14.89375 37.14375L14.89375 42.55L12.003125 42.55ZM14.89375 30.659374L14.89375 34.721874L16.471874 34.721874Q18.190624 34.721874 18.76875 34.503124Q19.346874 34.26875 19.659374 33.8Q19.9875 33.315624 19.9875 32.675Q19.9875 31.89375 19.534374 31.39375Q19.08125 30.878124 18.378124 30.753124Q17.8625 30.659374 16.3 30.659374L14.89375 30.659374ZM30.9875 39.253124L33.721874 39.70625Q33.20625 41.20625 32.065624 42.003124Q30.925 42.784374 29.221874 42.784374Q26.503124 42.784374 25.20625 41.01875Q24.190624 39.596874 24.190624 37.440624Q24.190624 34.8625 25.534374 33.409374Q26.878124 31.940624 28.940624 31.940624Q31.253124 31.940624 32.58125 33.471874Q33.925 35.003124 33.878124 38.159374L27.003124 38.159374Q27.034374 39.378124 27.659374 40.065624Q28.3 40.7375 29.2375 40.7375Q29.89375 40.7375 30.33125 40.39375Q30.76875 40.034374 30.9875 39.253124ZM31.14375 36.471874Q31.1125 35.284374 30.51875 34.675Q29.940624 34.05 29.1125 34.05Q28.20625 34.05 27.628124 34.690624Q27.034374 35.346874 27.05 36.471874L31.14375 36.471874ZM38.6125 42.55L35.8625 42.55L35.8625 32.175L38.425 32.175L38.425 33.659374Q39.065624 32.6125 39.58125 32.284374Q40.1125 31.940624 40.784374 31.940624Q41.721874 31.940624 42.58125 32.45625L41.7375 34.846874Q41.05 34.409374 40.45625 34.409374Q39.878124 34.409374 39.471874 34.721874Q39.065624 35.034374 38.83125 35.878124Q38.6125 36.70625 38.6125 39.346874L38.6125 42.55ZM42.784374 32.175L44.315624 32.175L44.315624 31.39375Q44.315624 30.08125 44.58125 29.440624Q44.8625 28.8 45.6125 28.39375Q46.3625 27.9875 47.503124 27.9875Q48.675 27.9875 49.8 28.346874L49.425 30.253124Q48.76875 30.096874 48.159374 30.096874Q47.565624 30.096874 47.3 30.378124Q47.05 30.659374 47.05 31.440624L47.05 32.175L49.096874 32.175L49.096874 34.33125L47.05 34.33125L47.05 42.55L44.315624 42.55L44.315624 34.33125L42.784374 34.33125L42.784374 32.175ZM50.346874 37.221874Q50.346874 35.846874 51.01875 34.565624Q51.70625 33.284374 52.940624 32.6125Q54.175 31.940624 55.690624 31.940624Q58.05 31.940624 59.55 33.471874Q61.05 35.003124 61.05 37.33125Q61.05 39.690624 59.534374 41.2375Q58.01875 42.784374 55.70625 42.784374Q54.284374 42.784374 52.9875 42.14375Q51.70625 41.4875 51.01875 40.253124Q50.346874 39.003124 50.346874 37.221874ZM53.159374 37.3625Q53.159374 38.909374 53.89375 39.7375Q54.628124 40.55 55.70625 40.55Q56.784374 40.55 57.503124 39.7375Q58.2375 38.909374 58.2375 37.346874Q58.2375 35.815624 57.503124 35.003124Q56.784374 34.175 55.70625 34.175Q54.628124 34.175 53.89375 35.003124Q53.159374 35.815624 53.159374 37.3625ZM65.6125 42.55L62.8625 42.55L62.8625 32.175L65.425 32.175L65.425 33.659374Q66.06563 32.6125 66.58125 32.284374Q67.1125 31.940624 67.78438 31.940624Q68.72188 31.940624 69.58125 32.45625L68.7375 34.846874Q68.05 34.409374 67.45625 34.409374Q66.87813 34.409374 66.47188 34.721874Q66.06563 35.034374 65.83125 35.878124Q65.6125 36.70625 65.6125 39.346874L65.6125 42.55ZM70.78438 32.175L73.31563 32.175L73.31563 33.596874Q74.675 31.940624 76.55 31.940624Q77.53438 31.940624 78.26875 32.3625Q79.00313 32.76875 79.47188 33.596874Q80.15938 32.76875 80.94063 32.3625Q81.7375 31.940624 82.64375 31.940624Q83.78438 31.940624 84.56563 32.409374Q85.3625 32.878124 85.75313 33.76875Q86.03438 34.440624 86.03438 35.925L86.03438 42.55L83.28438 42.55L83.28438 36.628124Q83.28438 35.08125 83.00313 34.628124Q82.62813 34.05 81.83125 34.05Q81.25313 34.05 80.7375 34.409374Q80.2375 34.753124 80.01875 35.425Q79.8 36.096874 79.8 37.565624L79.8 42.55L77.05 42.55L77.05 36.8625Q77.05 35.346874 76.89375 34.909374Q76.75313 34.471874 76.44063 34.26875Q76.14375 34.05 75.6125 34.05Q74.9875 34.05 74.47188 34.39375Q73.97188 34.721874 73.7375 35.378124Q73.51875 36.01875 73.51875 37.503124L73.51875 42.55L70.78438 42.55L70.78438 32.175ZM91.03438 35.346874L88.55 34.89375Q88.97188 33.39375 89.9875 32.675Q91.01875 31.940624 93.03438 31.940624Q94.87813 31.940624 95.76875 32.378124Q96.675 32.815624 97.03438 33.4875Q97.40938 34.14375 97.40938 35.940624L97.37813 39.14375Q97.37813 40.503124 97.50313 41.159374Q97.64375 41.8 98.00313 42.55L95.28438 42.55Q95.175 42.26875 95.01875 41.7375Q94.95625 41.4875 94.925 41.409374Q94.22188 42.096874 93.40938 42.440624Q92.6125 42.784374 91.70625 42.784374Q90.1125 42.784374 89.19063 41.925Q88.26875 41.05 88.26875 39.721874Q88.26875 38.83125 88.675 38.14375Q89.09688 37.45625 89.84688 37.096874Q90.6125 36.721874 92.05 36.45625Q93.97188 36.096874 94.70625 35.784374L94.70625 35.503124Q94.70625 34.721874 94.31563 34.39375Q93.925 34.05 92.84688 34.05Q92.1125 34.05 91.69063 34.33125Q91.28438 34.6125 91.03438 35.346874ZM94.70625 37.565624Q94.175 37.7375 93.03438 37.9875Q91.89375 38.2375 91.55 38.471874Q91.00313 38.846874 91.00313 39.440624Q91.00313 40.003124 91.425 40.425Q91.8625 40.846874 92.53438 40.846874Q93.26875 40.846874 93.94063 40.3625Q94.44063 39.9875 94.59688 39.45625Q94.70625 39.096874 94.70625 38.1125L94.70625 37.565624ZM109.425 42.55L106.675 42.55L106.675 37.253124Q106.675 35.58125 106.50313 35.096874Q106.33125 34.596874 105.925 34.33125Q105.53438 34.05 104.97188 34.05Q104.26875 34.05 103.69063 34.440624Q103.12813 34.83125 102.90938 35.471874Q102.70625 36.1125 102.70625 37.846874L102.70625 42.55L99.97188 42.55L99.97188 32.175L102.51875 32.175L102.51875 33.70625Q103.87813 31.940624 105.94063 31.940624Q106.84688 31.940624 107.59688 32.26875Q108.34688 32.596874 108.72188 33.1125Q109.1125 33.6125 109.26875 34.26875Q109.425 34.909374 109.425 36.096874L109.425 42.55ZM121.03438 35.2375L118.33125 35.7375Q118.19063 34.925 117.70625 34.51875Q117.22188 34.096874 116.45625 34.096874Q115.425 34.096874 114.81563 34.815624Q114.20625 35.51875 114.20625 37.175Q114.20625 39.01875 114.81563 39.784374Q115.44063 40.55 116.4875 40.55Q117.26875 40.55 117.76875 40.1125Q118.26875 39.659374 118.47188 38.58125L121.15938 39.034374Q120.75313 40.89375 119.55 41.846874Q118.3625 42.784374 116.3625 42.784374Q114.08125 42.784374 112.72188 41.346874Q111.37813 39.909374 111.37813 37.378124Q111.37813 34.8 112.7375 33.378124Q114.09688 31.940624 116.40938 31.940624Q118.3 31.940624 119.40938 32.76875Q120.53438 33.58125 121.03438 35.2375ZM128.9875 39.253124L131.72188 39.70625Q131.20625 41.20625 130.06563 42.003124Q128.925 42.784374 127.22188 42.784374Q124.50313 42.784374 123.20625 41.01875Q122.19063 39.596874 122.19063 37.440624Q122.19063 34.8625 123.53438 33.409374Q124.87813 31.940624 126.94063 31.940624Q129.25313 31.940624 130.58125 33.471874Q131.925 35.003124 131.87813 38.159374L125.00313 38.159374Q125.03438 39.378124 125.65938 40.065624Q126.3 40.7375 127.2375 40.7375Q127.89375 40.7375 128.33125 40.39375Q128.76875 40.034374 128.9875 39.253124ZM129.14375 36.471874Q129.1125 35.284374 128.51875 34.675Q127.94063 34.05 127.1125 34.05Q126.20625 34.05 125.62813 34.690624Q125.03438 35.346874 125.05 36.471874L129.14375 36.471874ZM138.78438 32.175L140.31563 32.175L140.31563 31.39375Q140.31563 30.08125 140.58125 29.440624Q140.8625 28.8 141.6125 28.39375Q142.3625 27.9875 143.50313 27.9875Q144.675 27.9875 145.8 28.346874L145.425 30.253124Q144.76875 30.096874 144.15938 30.096874Q143.56563 30.096874 143.3 30.378124Q143.05 30.659374 143.05 31.440624L143.05 32.175L145.09688 32.175L145.09688 34.33125L143.05 34.33125L143.05 42.55L140.31563 42.55L140.31563 34.33125L138.78438 34.33125L138.78438 32.175ZM146.9875 30.76875L146.9875 28.2375L149.7375 28.2375L149.7375 30.76875L146.9875 30.76875ZM146.9875 42.55L146.9875 32.175L149.7375 32.175L149.7375 42.55L146.9875 42.55ZM155.6125 42.55L152.8625 42.55L152.8625 32.175L155.425 32.175L155.425 33.659374Q156.06563 32.6125 156.58125 32.284374Q157.1125 31.940624 157.78438 31.940624Q158.72188 31.940624 159.58125 32.45625L158.7375 34.846874Q158.05 34.409374 157.45625 34.409374Q156.87813 34.409374 156.47188 34.721874Q156.06563 35.034374 155.83125 35.878124Q155.6125 36.70625 155.6125 39.346874L155.6125 42.55ZM160.01875 39.596874L162.76875 39.175Q162.95625 39.971874 163.4875 40.39375Q164.01875 40.8 164.9875 40.8Q166.05 40.8 166.59688 40.409374Q166.95625 40.14375 166.95625 39.675Q166.95625 39.3625 166.75313 39.159374Q166.55 38.971874 165.84688 38.8Q162.51875 38.065624 161.62813 37.45625Q160.39375 36.628124 160.39375 35.128124Q160.39375 33.784374 161.45625 32.8625Q162.53438 31.940624 164.76875 31.940624Q166.89375 31.940624 167.925 32.64375Q168.97188 33.33125 169.3625 34.690624L166.76875 35.159374Q166.59688 34.565624 166.12813 34.2375Q165.675 33.909374 164.81563 33.909374Q163.7375 33.909374 163.26875 34.221874Q162.95625 34.440624 162.95625 34.76875Q162.95625 35.065624 163.22188 35.26875Q163.59688 35.55 165.78438 36.05Q167.97188 36.55 168.84688 37.26875Q169.70625 38.003124 169.70625 39.3Q169.70625 40.7375 168.51875 41.76875Q167.33125 42.784374 164.9875 42.784374Q162.87813 42.784374 161.62813 41.925Q160.39375 41.065624 160.01875 39.596874ZM176.7375 32.175L176.7375 34.3625L174.8625 34.3625L174.8625 38.55Q174.8625 39.815624 174.90938 40.034374Q174.97188 40.2375 175.15938 40.378124Q175.3625 40.503124 175.62813 40.503124Q176.00313 40.503124 176.7375 40.2375L176.97188 42.378124Q176.00313 42.784374 174.8 42.784374Q174.05 42.784374 173.45625 42.534374Q172.8625 42.284374 172.58125 41.89375Q172.31563 41.4875 172.20625 40.815624Q172.1125 40.346874 172.1125 38.89375L172.1125 34.3625L170.84688 34.3625L170.84688 32.175L172.1125 32.175L172.1125 30.1125L174.8625 28.51875L174.8625 32.175L176.7375 32.175ZM184.8625 42.55L184.8625 28.2375L187.6125 28.2375L187.6125 33.39375Q188.87813 31.940624 190.62813 31.940624Q192.51875 31.940624 193.75313 33.315624Q195.00313 34.690624 195.00313 37.253124Q195.00313 39.909374 193.7375 41.346874Q192.47188 42.784374 190.65938 42.784374Q189.76875 42.784374 188.90938 42.346874Q188.05 41.89375 187.425 41.01875L187.425 42.55L184.8625 42.55ZM187.59688 37.14375Q187.59688 38.753124 188.09688 39.51875Q188.81563 40.6125 190.00313 40.6125Q190.90938 40.6125 191.55 39.846874Q192.19063 39.065624 192.19063 37.39375Q192.19063 35.6125 191.53438 34.83125Q190.89375 34.05 189.89375 34.05Q188.90938 34.05 188.25313 34.815624Q187.59688 35.58125 187.59688 37.14375ZM196.34688 37.221874Q196.34688 35.846874 197.01875 34.565624Q197.70625 33.284374 198.94063 32.6125Q200.175 31.940624 201.69063 31.940624Q204.05 31.940624 205.55 33.471874Q207.05 35.003124 207.05 37.33125Q207.05 39.690624 205.53438 41.2375Q204.01875 42.784374 201.70625 42.784374Q200.28438 42.784374 198.9875 42.14375Q197.70625 41.4875 197.01875 40.253124Q196.34688 39.003124 196.34688 37.221874ZM199.15938 37.3625Q199.15938 38.909374 199.89375 39.7375Q200.62813 40.55 201.70625 40.55Q202.78438 40.55 203.50313 39.7375Q204.2375 38.909374 204.2375 37.346874Q204.2375 35.815624 203.50313 35.003124Q202.78438 34.175 201.70625 34.175Q200.62813 34.175 199.89375 35.003124Q199.15938 35.815624 199.15938 37.3625ZM215.81563 42.55L215.81563 41.003124Q215.25313 41.83125 214.31563 42.315624Q213.39375 42.784374 212.37813 42.784374Q211.33125 42.784374 210.50313 42.33125Q209.675 41.8625 209.3 41.034374Q208.925 40.20625 208.925 38.7375L208.925 32.175L211.675 32.175L211.675 36.940624Q211.675 39.128124 211.81563 39.628124Q211.97188 40.1125 212.3625 40.409374Q212.76875 40.690624 213.39375 40.690624Q214.09688 40.690624 214.64375 40.315624Q215.20625 39.925 215.40938 39.3625Q215.6125 38.784374 215.6125 36.55L215.6125 32.175L218.3625 32.175L218.3625 42.55L215.81563 42.55ZM230.425 42.55L227.675 42.55L227.675 37.253124Q227.675 35.58125 227.50313 35.096874Q227.33125 34.596874 226.925 34.33125Q226.53438 34.05 225.97188 34.05Q225.26875 34.05 224.69063 34.440624Q224.12813 34.83125 223.90938 35.471874Q223.70625 36.1125 223.70625 37.846874L223.70625 42.55L220.97188 42.55L220.97188 32.175L223.51875 32.175L223.51875 33.70625Q224.87813 31.940624 226.94063 31.940624Q227.84688 31.940624 228.59688 32.26875Q229.34688 32.596874 229.72188 33.1125Q230.1125 33.6125 230.26875 34.26875Q230.425 34.909374 230.425 36.096874L230.425 42.55ZM242.03438 35.2375L239.33125 35.7375Q239.19063 34.925 238.70625 34.51875Q238.22188 34.096874 237.45625 34.096874Q236.425 34.096874 235.81563 34.815624Q235.20625 35.51875 235.20625 37.175Q235.20625 39.01875 235.81563 39.784374Q236.44063 40.55 237.4875 40.55Q238.26875 40.55 238.76875 40.1125Q239.26875 39.659374 239.47188 38.58125L242.15938 39.034374Q241.75313 40.89375 240.55 41.846874Q239.3625 42.784374 237.3625 42.784374Q235.08125 42.784374 233.72188 41.346874Q232.37813 39.909374 232.37813 37.378124Q232.37813 34.8 233.7375 33.378124Q235.09688 31.940624 237.40938 31.940624Q239.3 31.940624 240.40938 32.76875Q241.53438 33.58125 242.03438 35.2375ZM249.9875 39.253124L252.72188 39.70625Q252.20625 41.20625 251.06563 42.003124Q249.925 42.784374 248.22188 42.784374Q245.50313 42.784374 244.20625 41.01875Q243.19063 39.596874 243.19063 37.440624Q243.19063 34.8625 244.53438 33.409374Q245.87813 31.940624 247.94063 31.940624Q250.25313 31.940624 251.58125 33.471874Q252.925 35.003124 252.87813 38.159374L246.00313 38.159374Q246.03438 39.378124 246.65938 40.065624Q247.3 40.7375 248.2375 40.7375Q248.89375 40.7375 249.33125 40.39375Q249.76875 40.034374 249.9875 39.253124ZM250.14375 36.471874Q250.1125 35.284374 249.51875 34.675Q248.94063 34.05 248.1125 34.05Q247.20625 34.05 246.62813 34.690624Q246.03438 35.346874 246.05 36.471874L250.14375 36.471874ZM270.03436 35.2375L267.33124 35.7375Q267.1906 34.925 266.70624 34.51875Q266.22186 34.096874 265.45624 34.096874Q264.425 34.096874 263.8156 34.815624Q263.20624 35.51875 263.20624 37.175Q263.20624 39.01875 263.8156 39.784374Q264.4406 40.55 265.4875 40.55Q266.26874 40.55 266.76874 40.1125Q267.26874 39.659374 267.47186 38.58125L270.15936 39.034374Q269.7531 40.89375 268.55 41.846874Q267.3625 42.784374 265.3625 42.784374Q263.08124 42.784374 261.72186 41.346874Q260.3781 39.909374 260.3781 37.378124Q260.3781 34.8 261.7375 33.378124Q263.09686 31.940624 265.40936 31.940624Q267.3 31.940624 268.40936 32.76875Q269.53436 33.58125 270.03436 35.2375ZM274.03436 35.346874L271.55 34.89375Q271.97186 33.39375 272.9875 32.675Q274.01874 31.940624 276.03436 31.940624Q277.8781 31.940624 278.76874 32.378124Q279.675 32.815624 280.03436 33.4875Q280.40936 34.14375 280.40936 35.940624L280.3781 39.14375Q280.3781 40.503124 280.5031 41.159374Q280.64374 41.8 281.0031 42.55L278.28436 42.55Q278.175 42.26875 278.01874 41.7375Q277.95624 41.4875 277.925 41.409374Q277.22186 42.096874 276.40936 42.440624Q275.6125 42.784374 274.70624 42.784374Q273.1125 42.784374 272.1906 41.925Q271.26874 41.05 271.26874 39.721874Q271.26874 38.83125 271.675 38.14375Q272.09686 37.45625 272.84686 37.096874Q273.6125 36.721874 275.05 36.45625Q276.97186 36.096874 277.70624 35.784374L277.70624 35.503124Q277.70624 34.721874 277.3156 34.39375Q276.925 34.05 275.84686 34.05Q275.1125 34.05 274.6906 34.33125Q274.28436 34.6125 274.03436 35.346874ZM277.70624 37.565624Q277.175 37.7375 276.03436 37.9875Q274.89374 38.2375 274.55 38.471874Q274.0031 38.846874 274.0031 39.440624Q274.0031 40.003124 274.425 40.425Q274.8625 40.846874 275.53436 40.846874Q276.26874 40.846874 276.9406 40.3625Q277.4406 39.9875 277.59686 39.45625Q277.70624 39.096874 277.70624 38.1125L277.70624 37.565624ZM292.03436 35.2375L289.33124 35.7375Q289.1906 34.925 288.70624 34.51875Q288.22186 34.096874 287.45624 34.096874Q286.425 34.096874 285.8156 34.815624Q285.20624 35.51875 285.20624 37.175Q285.20624 39.01875 285.8156 39.784374Q286.4406 40.55 287.4875 40.55Q288.26874 40.55 288.76874 40.1125Q289.26874 39.659374 289.47186 38.58125L292.15936 39.034374Q291.7531 40.89375 290.55 41.846874Q289.3625 42.784374 287.3625 42.784374Q285.08124 42.784374 283.72186 41.346874Q282.3781 39.909374 282.3781 37.378124Q282.3781 34.8 283.7375 33.378124Q285.09686 31.940624 287.40936 31.940624Q289.3 31.940624 290.40936 32.76875Q291.53436 33.58125 292.03436 35.2375ZM296.72186 28.2375L296.72186 33.503124Q298.05 31.940624 299.89374 31.940624Q300.84686 31.940624 301.59686 32.3Q302.3625 32.64375 302.7531 33.190624Q303.14374 33.7375 303.28436 34.409374Q303.425 35.065624 303.425 36.471874L303.425 42.55L300.675 42.55L300.675 37.065624Q300.675 35.440624 300.51874 35.003124Q300.3625 34.565624 299.95624 34.315624Q299.5656 34.05 298.97186 34.05Q298.3 34.05 297.7531 34.378124Q297.22186 34.70625 296.97186 35.378124Q296.72186 36.05 296.72186 37.346874L296.72186 42.55L293.97186 42.55L293.97186 28.2375L296.72186 28.2375ZM311.9875 39.253124L314.72186 39.70625Q314.20624 41.20625 313.0656 42.003124Q311.925 42.784374 310.22186 42.784374Q307.5031 42.784374 306.20624 41.01875Q305.1906 39.596874 305.1906 37.440624Q305.1906 34.8625 306.53436 33.409374Q307.8781 31.940624 309.9406 31.940624Q312.2531 31.940624 313.58124 33.471874Q314.925 35.003124 314.8781 38.159374L308.0031 38.159374Q308.03436 39.378124 308.65936 40.065624Q309.3 40.7375 310.2375 40.7375Q310.89374 40.7375 311.33124 40.39375Q311.76874 40.034374 311.9875 39.253124ZM312.14374 36.471874Q312.1125 35.284374 311.51874 34.675Q310.9406 34.05 310.1125 34.05Q309.20624 34.05 308.6281 34.690624Q308.03436 35.346874 308.05 36.471874L312.14374 36.471874Z" fill-rule="nonzero"/></svg>